<svg width="244" height="42" viewBox="0 0 244 42" fill="none" xmlns="http://www.w3.org/2000/svg">
<path d="M41.3086 21.0087V20.9276C41.2679 9.45293 31.9989 0.0883789 20.6543 0.0883789C9.30976 0.0883789 0 9.45293 0 21.0087C0 32.566 9.26764 41.9117 20.6543 41.9117C25.8793 41.9152 30.9044 39.9098 34.6843 36.3127C35.0566 35.9735 35.2785 35.5007 35.3013 34.9984C35.324 34.4961 35.1457 34.0053 34.8056 33.6341C34.4655 33.2628 33.9914 33.0415 33.4876 33.0188C32.9839 32.9962 32.4917 33.174 32.1194 33.5131L32.0787 33.5537C30.4478 35.0997 28.5204 36.3012 26.4123 37.086C24.3041 37.8708 22.0586 38.2227 19.8107 38.1205C17.5627 38.0184 15.3587 37.4644 13.3308 36.4917C11.3029 35.519 9.49306 34.1478 8.00988 32.4602L16.8331 18.3511V24.88C16.8331 27.9996 18.0531 29.0148 19.0785 29.2987C20.1039 29.5825 21.6419 29.3769 23.3078 26.7424L28.1486 18.9044C28.2779 18.6756 28.4275 18.4583 28.593 18.2541V22.2296C28.593 25.1479 29.7724 27.4999 31.8042 28.6339C32.7422 29.1432 33.801 29.3896 34.8681 29.347C35.9352 29.3044 36.9709 28.9744 37.865 28.392C40.2121 26.8728 41.4727 24.2123 41.3086 21.0087ZM35.9406 25.1146C35.6147 25.3385 35.2346 25.4714 34.8399 25.4997C34.4451 25.528 34.0499 25.4505 33.6952 25.2753C32.8819 24.7902 32.3925 23.6967 32.3925 22.1963V17.6009C32.3925 15.414 31.5385 13.8311 30.0759 13.4284C27.5938 12.6811 25.726 15.7384 25.0332 16.8739L20.6543 23.8864V15.2518C20.6136 13.2662 19.9615 12.0902 18.7415 11.7238C17.9282 11.482 16.7082 11.6051 15.5303 13.3893L5.7311 29.038C4.42747 26.5609 3.7443 23.8061 3.73988 21.0087C3.73988 11.5616 11.3416 3.89879 20.6543 3.89879C29.967 3.89879 37.5687 11.5616 37.5687 21.0087V21.0913C37.666 22.9132 37.0793 24.376 35.9421 25.103L35.9406 25.1146ZM70.0963 13.8731C70.3657 14.0452 70.5908 14.2779 70.7535 14.5526C70.9162 14.8273 71.012 15.1362 71.033 15.4546C71.0302 15.92 70.8463 16.3661 70.5201 16.6989C70.1939 17.0318 69.7509 17.2254 69.2844 17.2389C69.0631 17.222 68.8444 17.1808 68.6323 17.1158C67.4932 16.2637 66.1114 15.796 64.6876 15.7804C61.2324 15.7804 58.8752 18.5756 58.8752 22.0616C58.8752 25.5476 61.2745 28.3066 64.6876 28.3066C66.3282 28.3043 67.9033 27.6642 69.0781 26.5223C69.3773 26.3123 69.7317 26.1993 70.0963 26.1979C70.3881 26.1947 70.6755 26.2688 70.9291 26.4127C71.1827 26.5566 71.3935 26.7651 71.5398 27.0169C71.686 27.2687 71.7626 27.5547 71.7616 27.8457C71.7606 28.1367 71.6821 28.4222 71.5341 28.673C71.3932 28.9192 71.1928 29.1292 70.9503 29.2813C69.7599 30.2682 68.3489 30.9552 66.8364 31.2844C65.3239 31.6135 63.7542 31.5751 62.2598 31.1724C60.7653 30.7697 59.3898 30.0145 58.2494 28.9705C57.109 27.9265 56.2371 26.6244 55.7072 25.1739C55.1774 23.7234 55.0051 22.1671 55.205 20.6363C55.4048 19.1055 55.9709 17.6451 56.8555 16.3782C57.7401 15.1113 58.9173 14.0752 60.2877 13.3571C61.6581 12.6391 63.1816 12.2602 64.7297 12.2524C66.644 12.2235 68.5204 12.7883 70.0963 13.8731ZM79.772 17.9152C77.948 17.9075 76.1953 18.6212 74.8981 19.8998C73.6009 21.1784 72.8649 22.9178 72.8514 24.7366C72.8627 26.5655 73.5933 28.3169 74.8862 29.6142C76.179 30.9116 77.9308 31.6511 79.7648 31.6738C83.3434 31.6738 86.3934 28.4702 86.3934 24.7366C86.3934 21.0058 83.3914 17.9152 79.772 17.9152ZM79.7314 28.295C78.0248 28.295 76.6015 26.754 76.6015 24.767C76.6015 22.7003 78.0248 21.4418 79.7314 21.4418C81.3188 21.4418 82.6579 22.7409 82.6579 24.767C82.6579 26.7946 81.3188 28.3066 79.7314 28.3066V28.295ZM88.6766 29.5637V19.9935C88.6719 19.7454 88.7169 19.4988 88.8089 19.2682C88.9009 19.0376 89.0381 18.8276 89.2123 18.6504C89.3866 18.4732 89.5946 18.3325 89.824 18.2363C90.0535 18.1402 90.2998 18.0906 90.5487 18.0904C91.0495 18.0969 91.5274 18.3007 91.8781 18.6572C92.2288 19.0137 92.4239 19.4941 92.4208 19.9935V29.5637C92.4243 30.0633 92.2294 30.5441 91.8786 30.9009C91.5278 31.2578 91.0497 31.4617 90.5487 31.4682C90.0503 31.4536 89.5769 31.2471 89.2279 30.892C88.8788 30.537 88.6812 30.0609 88.6766 29.5637ZM88.3919 14.4813C88.3838 14.1925 88.4334 13.9048 88.5378 13.6352C88.6422 13.3656 88.7993 13.1194 89 12.9109C89.2007 12.7024 89.441 12.5358 89.7068 12.4208C89.9727 12.3057 90.2589 12.2446 90.5487 12.2409C90.8403 12.2443 91.1283 12.3049 91.3963 12.4194C91.6644 12.5338 91.9072 12.6999 92.1108 12.9079C92.3145 13.116 92.4751 13.3621 92.5833 13.632C92.6916 13.902 92.7454 14.1906 92.7418 14.4813C92.7418 15.0564 92.5127 15.6078 92.105 16.0144C91.6972 16.421 91.1442 16.6494 90.5676 16.6494C89.9909 16.6494 89.4379 16.421 89.0302 16.0144C88.6224 15.6078 88.3919 15.0564 88.3919 14.4813ZM99.5738 24.376V29.5637C99.5738 30.0588 99.3765 30.5336 99.0254 30.8837C98.6744 31.2338 98.1982 31.4305 97.7017 31.4305C97.2051 31.4305 96.729 31.2338 96.3779 30.8837C96.0268 30.5336 95.8295 30.0588 95.8295 29.5637V19.5489C95.8295 19.1671 95.9816 18.8009 96.2524 18.5309C96.5231 18.2609 96.8903 18.1093 97.2732 18.1093C97.6561 18.1093 98.0233 18.2609 98.294 18.5309C98.5648 18.8009 98.7169 19.1671 98.7169 19.5489C99.2504 19.0052 99.8928 18.5798 100.602 18.3003C101.312 18.0208 102.072 17.8935 102.834 17.9268C106.577 17.9268 108.243 20.7249 108.243 23.9284V29.5637C108.243 30.0588 108.046 30.5336 107.695 30.8837C107.344 31.2338 106.867 31.4305 106.371 31.4305C105.874 31.4305 105.398 31.2338 105.047 30.8837C104.696 30.5336 104.499 30.0588 104.499 29.5637V24.376C104.499 22.7524 104.297 21.3896 101.938 21.3896C100.274 21.3896 99.581 22.7669 99.581 24.376H99.5738ZM120.352 26.3616C120.162 26.362 119.974 26.3179 119.804 26.2329C119.635 26.1479 119.487 26.0243 119.374 25.872L115.024 21.1695V29.5637C115.031 29.8131 114.988 30.0614 114.897 30.2939C114.806 30.5264 114.669 30.7383 114.495 30.9172C114.32 31.0961 114.112 31.2383 113.881 31.3354C113.651 31.4325 113.403 31.4825 113.153 31.4825C112.903 31.4825 112.655 31.4325 112.424 31.3354C112.194 31.2383 111.985 31.0961 111.811 30.9172C111.636 30.7383 111.5 30.5264 111.409 30.2939C111.318 30.0614 111.274 29.8131 111.281 29.5637V12.9389C111.339 12.8011 111.435 12.6823 111.557 12.5964C111.68 12.5106 111.825 12.4611 111.974 12.4538C112.297 12.5083 112.587 12.6814 112.788 12.9389L119.742 20.7249C119.812 20.8252 119.903 20.9101 120.008 20.9743C120.113 21.0385 120.23 21.0808 120.352 21.0985C120.594 21.0517 120.81 20.9189 120.962 20.7249L127.913 12.9389C128.009 12.8084 128.13 12.6982 128.27 12.6149C128.409 12.5317 128.564 12.4769 128.725 12.4538C128.877 12.45 129.026 12.4951 129.151 12.5825C129.276 12.6698 129.369 12.7948 129.417 12.9389V29.5651C129.422 29.8133 129.377 30.0598 129.285 30.2904C129.193 30.521 129.056 30.7311 128.882 30.9082C128.707 31.0854 128.499 31.2261 128.27 31.3223C128.04 31.4184 127.794 31.468 127.545 31.4682C127.045 31.4609 126.567 31.2567 126.217 30.9C125.866 30.5433 125.671 30.063 125.675 29.5637V21.1695L121.32 25.872C121.069 26.1513 120.722 26.3261 120.347 26.3616H120.352ZM155.521 21.3751H155.113C152.756 21.4939 152.31 22.835 152.31 24.3615V29.5492C152.309 30.0442 152.112 30.5188 151.761 30.8688C151.41 31.2188 150.934 31.4157 150.438 31.416C149.941 31.4153 149.465 31.2181 149.115 30.8678C148.764 30.5175 148.567 30.0428 148.567 29.5478V19.5503C148.568 19.1684 148.72 18.8023 148.991 18.5322C149.262 18.2621 149.629 18.11 150.012 18.1093C150.395 18.11 150.762 18.2622 151.033 18.5323C151.303 18.8024 151.455 19.1685 151.456 19.5503C152.837 18.2512 153.976 17.9673 155.113 17.9253H155.488C155.944 17.9374 156.377 18.1263 156.696 18.4519C157.014 18.7775 157.193 19.2141 157.194 19.6691C157.194 20.1137 157.019 20.5405 156.708 20.859C156.397 21.1776 155.974 21.3627 155.528 21.3751H155.521ZM169.955 28.6716C170.126 28.9395 170.225 29.2465 170.239 29.5637C170.219 30.0523 170.015 30.5154 169.668 30.8612C169.322 31.207 168.857 31.4102 168.367 31.4305C167.719 31.4305 167.147 30.941 166.701 30.3733L162.394 25.3796V29.5217C162.394 30.0166 162.196 30.4913 161.845 30.8412C161.495 31.1912 161.019 31.3878 160.522 31.3878C160.026 31.3878 159.55 31.1912 159.199 30.8412C158.848 30.4913 158.651 30.0166 158.651 29.5217V14.322C158.65 13.9527 158.759 13.5914 158.965 13.2841C159.17 12.9767 159.462 12.7372 159.805 12.5958C160.147 12.4544 160.523 12.4176 160.887 12.4901C161.25 12.5625 161.583 12.7409 161.845 13.0027C162.196 13.3517 162.394 13.8282 162.394 14.3206V23.8068L166.701 19.0651C167.147 18.5771 167.679 18.0513 168.327 18.0513C168.801 18.0722 169.251 18.2724 169.583 18.6112C169.915 18.9501 170.106 19.4023 170.116 19.8762C170.117 20.1769 170.033 20.4719 169.872 20.7263L166.459 24.4585L169.955 28.6773V28.6716ZM192.562 31.6318H191.544C188.699 31.6318 187.03 30.3733 187.03 25.9546V21.3751H186.057C185.598 21.3751 185.159 21.1934 184.834 20.8699C184.51 20.5464 184.327 20.1077 184.327 19.6502C184.327 19.1928 184.51 18.754 184.834 18.4306C185.159 18.1071 185.598 17.9253 186.057 17.9253H187.016V14.3988C187.007 14.0247 187.112 13.6567 187.316 13.3429C187.521 13.0292 187.815 12.7844 188.162 12.6406C188.391 12.545 188.638 12.4958 188.886 12.4958C189.387 12.5041 189.863 12.7085 190.214 13.0646C190.564 13.4207 190.76 13.8999 190.759 14.3988V17.9152H192.301C192.753 17.9288 193.181 18.1192 193.494 18.4453C193.806 18.7713 193.977 19.2067 193.97 19.6575C193.955 20.098 193.775 20.5171 193.467 20.8326C193.158 21.1481 192.742 21.3375 192.301 21.3636H190.759V25.216C190.759 27.7693 190.878 28.295 192.016 28.295H192.548C192.99 28.2969 193.413 28.4731 193.725 28.7852C194.037 29.0972 194.213 29.5198 194.214 29.9605C194.204 30.398 194.025 30.8147 193.715 31.1241C193.405 31.4335 192.987 31.6117 192.548 31.6217L192.562 31.6318ZM210.653 13.8731C210.922 14.0456 211.147 14.2785 211.309 14.5531C211.472 14.8277 211.567 15.1365 211.589 15.4546C211.586 15.9201 211.402 16.3664 211.076 16.6993C210.75 17.0323 210.307 17.2257 209.84 17.2389C209.619 17.2211 209.401 17.1798 209.189 17.1158C208.052 16.2631 206.671 15.7953 205.248 15.7804C201.789 15.7804 199.431 18.5756 199.431 22.0616C199.431 25.5476 201.83 28.3066 205.248 28.3066C206.888 28.3043 208.463 27.6642 209.638 26.5223C209.936 26.3138 210.29 26.2008 210.653 26.1979C210.873 26.1959 211.091 26.2373 211.294 26.3199C211.498 26.4024 211.683 26.5244 211.838 26.6787C212.097 26.936 212.262 27.2717 212.309 27.633C212.355 27.9943 212.279 28.3606 212.094 28.6745C211.952 28.9219 211.749 29.13 211.506 29.2798C210.316 30.2649 208.906 30.9502 207.395 31.2779C205.884 31.6056 204.316 31.566 202.824 31.1626C200.571 30.5552 198.615 29.1538 197.319 27.2183C196.023 25.2828 195.474 22.9444 195.775 20.6365C196.075 18.3282 197.204 16.2066 198.952 14.6649C200.701 13.1232 202.951 12.2661 205.285 12.2524C207.201 12.2161 209.08 12.7832 210.653 13.8731ZM143.771 18.0499C143.581 18.0498 143.392 18.0878 143.217 18.1615C143.041 18.2352 142.883 18.3432 142.75 18.4792C142.617 18.6151 142.512 18.7762 142.443 18.9529C142.373 19.1297 142.34 19.3185 142.345 19.5083L142.267 19.9573C141.73 19.3238 141.064 18.8116 140.314 18.455C139.563 18.0984 138.745 17.9055 137.914 17.8891C134.257 17.8891 131.615 20.9682 131.615 24.696C131.615 28.4253 134.215 31.6318 137.712 31.6318C139.176 31.6318 141.492 30.9816 142.226 29.5637L142.309 30.0083C142.305 30.1992 142.34 30.3888 142.413 30.5655C142.486 30.7421 142.594 30.902 142.731 31.0353C142.868 31.1686 143.031 31.2725 143.21 31.3404C143.389 31.4084 143.58 31.4391 143.771 31.4305C143.964 31.4309 144.154 31.3934 144.332 31.3202C144.51 31.2469 144.671 31.1394 144.807 31.0038C144.943 30.8681 145.051 30.7071 145.125 30.5298C145.198 30.3525 145.236 30.1625 145.235 29.9707V19.5199C145.23 19.1335 145.074 18.7643 144.801 18.4901C144.528 18.2159 144.159 18.0581 143.771 18.0499ZM138.322 28.3066C136.656 28.3066 135.353 26.728 135.353 24.7786C135.353 22.8307 136.694 21.4186 138.322 21.4186C139.949 21.4186 141.414 22.7553 141.414 24.7786C141.414 26.8018 139.989 28.3066 138.322 28.3066ZM183.617 24.4542C183.534 20.2773 180.81 17.9253 177.193 17.9253C172.703 17.9253 170.807 21.1695 170.807 24.9017C170.807 29.6462 173.941 31.6724 177.722 31.6724C179.144 31.6724 180.649 31.4682 181.786 30.6166C182.022 30.4786 182.22 30.2842 182.362 30.0508C182.504 29.8174 182.586 29.5525 182.599 29.2798C182.602 28.8785 182.447 28.4922 182.166 28.204C181.886 27.9157 181.504 27.7487 181.102 27.7389C180.758 27.7418 180.421 27.8402 180.129 28.0227C179.357 28.3512 178.526 28.5164 177.687 28.5079C176.752 28.5079 174.597 28.1342 174.597 25.914H182.149C182.535 25.9067 182.904 25.7506 183.177 25.4785C183.451 25.2065 183.609 24.8394 183.617 24.4542ZM174.588 23.5128C174.588 21.9342 176.258 21.4084 177.272 21.4084C178.287 21.4084 179.956 21.9342 179.996 23.5128H174.588ZM225.569 18.0499C225.379 18.05 225.191 18.088 225.015 18.1616C224.84 18.2352 224.681 18.343 224.548 18.4786C224.415 18.6145 224.311 18.7757 224.242 18.9526C224.173 19.1295 224.14 19.3185 224.146 19.5083L224.065 19.9573C223.529 19.3237 222.864 18.8115 222.114 18.4548C221.363 18.0982 220.546 17.9053 219.715 17.8891C216.055 17.8891 213.411 20.9682 213.411 24.696C213.411 28.4253 216.031 31.6318 219.508 31.6318C220.972 31.6318 223.293 30.9816 224.022 29.5637L224.105 30.0083C224.103 30.1989 224.139 30.3881 224.212 30.5643C224.285 30.7405 224.393 30.9002 224.529 31.0337C224.666 31.1672 224.829 31.2712 225.008 31.3395C225.187 31.4078 225.378 31.4387 225.569 31.4305C225.859 31.4304 226.142 31.3448 226.383 31.1844C226.624 31.0241 226.812 30.7963 226.923 30.5297C226.996 30.353 227.033 30.1633 227.033 29.9707V19.5199C227.027 19.1337 226.871 18.765 226.598 18.4909C226.325 18.2169 225.956 18.0588 225.569 18.0499ZM220.119 28.3066C218.495 28.3066 217.151 26.728 217.151 24.7786C217.151 22.8307 218.454 21.4186 220.119 21.4186C221.784 21.4186 223.211 22.7553 223.211 24.7786C223.211 26.8018 221.796 28.3066 220.127 28.3066H220.119ZM237.692 17.9152C236.877 17.9004 236.068 18.0509 235.313 18.3576C234.558 18.6643 233.874 19.1209 233.302 19.6995C233.302 18.7697 232.692 18.0789 231.88 18.0789C231.687 18.0783 231.497 18.1156 231.318 18.1888C231.14 18.2619 230.979 18.3694 230.842 18.505C230.706 18.6406 230.598 18.8018 230.524 18.9792C230.451 19.1566 230.413 19.3467 230.413 19.5387V35.2713C230.414 35.7657 230.612 36.2395 230.962 36.5891C231.313 36.9387 231.788 37.1356 232.284 37.1367C232.78 37.1363 233.256 36.9397 233.606 36.59C233.957 36.2403 234.155 35.7661 234.156 35.2713V30.5384C235.17 31.306 236.798 31.6318 237.899 31.6579C241.437 31.6579 244 28.4558 244 24.7236C244 20.9899 241.313 17.9152 237.692 17.9152ZM237.244 28.295C235.578 28.295 234.156 26.8033 234.156 24.7684C234.156 22.7336 235.578 21.4084 237.244 21.4084C238.909 21.4084 240.212 22.7452 240.212 24.7684C240.212 26.7265 238.914 28.3066 237.244 28.3066V28.295Z" fill="#BDBDBE"/>
</svg>
