<svg width="206" height="29" viewBox="0 0 206 29" fill="none" xmlns="http://www.w3.org/2000/svg">
<path d="M30.3012 28.1486H49.9812V22.9552H36.2462V16.6002H47.6237V11.4069H36.2462V5.53024H50.0495V0.336914H30.3012V28.1486ZM73.6587 17.8302L60.7779 0.336914H51.8945L54.662 3.85608V28.2169H60.607V9.9719L73.932 28.1486H79.6037V0.336914H73.6587V17.8302ZM21.3154 13.8327C23.9121 13.3202 26.0987 10.8944 26.0987 7.47774C26.0646 3.78775 23.3996 0.336914 18.0354 0.336914H0.78125L3.44625 3.75358V28.1486H18.6162C23.9804 28.1486 26.7479 24.8002 26.7479 20.5977C26.6796 17.1811 24.3221 14.2427 21.3154 13.8327ZM9.42541 5.56441H16.8737C18.8896 5.56441 20.1537 6.72608 20.1537 8.50274C20.1537 10.2452 18.8896 11.4411 16.8737 11.4411H9.42541V5.56441ZM17.1471 22.9894H9.45957V16.6002H17.1471C19.4021 16.6002 20.6662 18.0352 20.6662 19.7777C20.6662 21.7936 19.3337 22.9552 17.1471 22.9894ZM166.626 17.8302H169.735V21.1102C168.129 22.4427 166.114 23.1602 164.029 23.1944C159.075 23.1944 155.556 19.4361 155.556 14.3111C155.556 9.22024 159.075 5.42775 164.029 5.42775C166.626 5.46191 169.018 6.76024 170.384 8.94691L175.065 6.35024C173.049 3.17275 169.53 0.336914 163.927 0.336914C156.069 0.336914 149.509 5.76941 149.509 14.2427C149.509 22.7161 155.966 28.1486 163.927 28.1486C168.266 28.2169 172.434 26.3719 175.304 23.1261V12.8419H162.629L166.626 17.8302ZM139.839 17.8302L126.924 0.336914H118.041L120.809 3.85608V28.2169H126.754V9.9719L140.079 28.1486H145.784V0.336914H139.839V17.8302ZM195.019 0.336914H183.539L186.306 3.85608L185.794 5.18858L176.91 28.2169H183.607L185.349 23.5361H197.342L199.084 28.2169H205.781L195.019 0.336914ZM186.921 18.2744L191.26 6.28191L195.599 18.2744H186.921ZM108.679 0.336914H114.624V28.2169H108.679V0.336914ZM103.896 5.12024V0.336914H82.952V5.53024H96.1062L82.952 23.3652V28.1486H104.135V22.9552H90.6395L103.896 5.12024Z" fill="#BFBFBF"/>
</svg>
