<svg width="118" height="44" viewBox="0 0 118 44" fill="none" xmlns="http://www.w3.org/2000/svg">
<path fill-rule="evenodd" clip-rule="evenodd" d="M42.3 13.0918V26.0918H45.5H48.7V21.0918C48.7 17.7918 48.7 15.9918 48.7 15.7918C48.8 15.2918 48.9 14.7918 49.2 14.3918C49.6 13.6918 50.3 13.3918 51.1 13.4918C52.2 13.5918 52.9 14.1918 53.1 15.4918C53.1 15.6918 53.1 17.6918 53.1 20.8918V25.9918H56.3H59.5V19.9918C59.5 14.8918 59.5 13.8918 59.4 13.3918C59.2 11.5918 58.6 10.1918 57.5 9.1918C56.6 8.2918 55.5 7.7918 54.2 7.5918C53.7 7.4918 52.3 7.5918 51.9 7.6918C50.7 7.9918 49.8 8.3918 49 9.2918L48.5 9.6918V4.8918V0.0917969H45.3H42.1V13.0918H42.3ZM110.3 0.291798C110.1 0.691798 103.6 16.3918 103.6 16.3918C103.6 16.3918 105.3 16.3918 107.4 16.3918H111.2L114.6 8.2918C116.5 3.7918 118 0.0917969 118 0.0917969C118 0.0917969 116.3 0.0917969 114.2 0.0917969H110.4L110.3 0.291798ZM28.3 7.6918C26.9 7.8918 25.8 8.2918 24.7 8.9918C22.5 10.3918 21.1 12.7918 20.7 15.5918C20.5 16.8918 20.6 18.4918 20.9 19.6918C21.7 22.7918 23.8 25.1918 26.5 26.0918C27.5 26.3918 27.9 26.4918 29.1 26.4918C30 26.4918 30.3 26.4918 30.6 26.3918C31.9 26.0918 32.8 25.5918 33.6 24.7918L34 24.3918V25.1918V25.9918H37.1H40.2V16.9918V7.9918H37.1H34V8.7918V9.5918L33.7 9.2918C33 8.4918 32 7.9918 30.7 7.6918C30.3 7.5918 30.1 7.5918 29.3 7.5918C28.8 7.6918 28.4 7.6918 28.3 7.6918ZM69.1 7.6918C67.4 7.8918 65.6 8.6918 64.3 9.6918C61.8 11.7918 60.5 15.0918 61 18.4918C61.5 22.2918 64.2 25.1918 68 26.1918C68.8 26.3918 69.6 26.4918 70.6 26.4918C72.4 26.4918 73.7 26.1918 75.1 25.4918C77.9 24.0918 79.7 21.5918 80.1 18.4918C80.2 17.6918 80.2 16.3918 80.1 15.6918C79.9 14.1918 79.3 12.6918 78.4 11.4918C78 10.9918 77.2 10.0918 76.7 9.6918C75.3 8.5918 73.7 7.8918 71.9 7.6918C71.2 7.5918 69.8 7.5918 69.1 7.6918ZM89.5 7.6918C87.8 7.8918 86.1 8.5918 84.8 9.6918C84.3 10.0918 83.4 10.9918 83.1 11.4918C82.2 12.6918 81.7 14.1918 81.4 15.6918C81.3 16.3918 81.3 17.7918 81.4 18.4918C82 22.4918 84.9 25.5918 88.9 26.3918C89.7 26.5918 90.1 26.5918 91 26.5918C92.7 26.5918 94.2 26.2918 95.6 25.4918C99.3 23.5918 101.3 19.3918 100.4 15.0918C99.6 11.0918 96.4 8.1918 92.3 7.6918C91.6 7.5918 90.2 7.5918 89.5 7.6918ZM0 8.0918C0 8.0918 1.7 12.1918 3.8 17.1918C5.9 22.1918 7.6 26.2918 7.6 26.2918C7.6 26.2918 7 27.7918 6.2 29.5918C5.4 31.3918 4.8 32.7918 4.8 32.8918C4.8 32.9918 6.3 32.8918 8.2 32.8918H11.6L16.7 20.5918C19.5 13.7918 21.8 8.2918 21.8 8.1918C21.8 8.1918 21.1 8.0918 18.4 8.1918H15L12.9 13.3918C12 16.1918 11.1 18.5918 11.1 18.5918C11.1 18.5918 10.2 16.1918 9 13.3918L7 8.1918H3.5C1.6 8.0918 0 8.0918 0 8.0918ZM31.4 13.4918C32.7 13.7918 33.7 14.7918 34.1 16.0918C34.2 16.5918 34.2 17.4918 34.1 17.9918C33.8 19.2918 32.8 20.2918 31.5 20.5918C31 20.6918 30.1 20.6918 29.6 20.5918C28.5 20.2918 27.5 19.4918 27.1 18.4918C26.6 17.3918 26.8 15.9918 27.4 14.9918C28.3 13.6918 29.8 13.1918 31.4 13.4918ZM71.3 13.5918C72.7 13.7918 73.8 14.8918 74.1 16.2918C74.2 16.7918 74.2 17.5918 74.1 18.0918C73.8 19.3918 72.8 20.2918 71.6 20.6918C71.2 20.7918 70.1 20.7918 69.7 20.6918C68.7 20.3918 67.9 19.6918 67.4 18.7918C67.1 18.1918 67.1 17.8918 67.1 17.1918C67.1 16.5918 67.2 16.2918 67.4 15.7918C67.7 15.1918 68.1 14.5918 68.7 14.1918C69.3 13.5918 70.3 13.3918 71.3 13.5918ZM91.6 13.5918C92.8 13.7918 93.8 14.5918 94.2 15.6918C94.4 16.1918 94.5 16.4918 94.5 17.0918C94.5 17.7918 94.4 18.0918 94.2 18.6918C93.8 19.5918 92.9 20.2918 91.9 20.5918C91.5 20.6918 90.4 20.6918 90 20.5918C88.8 20.2918 87.8 19.2918 87.5 17.9918C87.4 17.4918 87.4 16.5918 87.5 16.0918C87.9 14.4918 89.3 13.3918 90.9 13.3918C91.1 13.4918 91.4 13.4918 91.6 13.5918ZM105.2 17.9918C103.3 18.1918 101.9 19.5918 101.5 21.3918C101.4 21.8918 101.4 22.7918 101.5 23.2918C101.9 24.8918 103.1 25.9918 104.7 26.3918C104.9 26.3918 105.3 26.4918 105.6 26.4918C106.8 26.4918 107.8 26.0918 108.6 25.2918C109.5 24.3918 109.8 23.4918 109.8 22.2918C109.8 20.7918 109.1 19.4918 107.9 18.7918C107.1 18.0918 106 17.8918 105.2 17.9918ZM52.5 27.7918C51.2 28.1918 50.6 29.6918 51.3 30.7918C51.5 31.0918 51.9 31.4918 52.2 31.5918C52.5 31.6918 52.5 31.6918 53.1 31.6918C53.6 31.6918 53.7 31.6918 54 31.5918C54.4 31.3918 54.8 30.9918 55 30.5918C55.5 29.5918 55 28.3918 54 27.8918C53.7 27.6918 53.6 27.6918 53.2 27.6918C52.8 27.6918 52.7 27.6918 52.5 27.7918ZM47.1 27.8918C45.4 28.1918 44.3 29.2918 43.8 31.0918C43.7 31.3918 43.7 31.6918 43.7 32.0918V32.7918H43H42.3V34.2918V35.7918H43H43.7V39.3918V42.9918H45.6H47.5V39.3918V35.7918H48.8H50.1V34.2918V32.7918H48.8H47.5V32.4918C47.6 31.7918 47.9 31.2918 48.5 31.1918C48.9 31.0918 49.5 31.0918 49.9 31.2918C50.1 31.3918 50.2 31.3918 50.2 31.3918C50.2 31.3918 50.2 30.6918 50.2 29.7918V28.1918L49.9 28.0918C49.5 27.8918 49 27.8918 48.3 27.8918C47.8 27.7918 47.4 27.8918 47.1 27.8918ZM62.3 32.5918C61.5 32.7918 60.9 33.1918 60.5 33.6918L60.3 33.9918V33.3918V32.7918H58.4H56.5V37.8918V42.9918H58.4H60.3V40.1918C60.3 38.5918 60.3 37.2918 60.3 37.0918C60.4 36.6918 60.6 36.2918 60.8 36.0918C61.3 35.6918 62.2 35.7918 62.6 36.2918C62.9 36.6918 62.9 36.6918 62.9 39.8918V42.8918H64.8H66.7V39.4918C66.7 35.8918 66.7 35.4918 66.5 34.7918C66.3 34.1918 66.1 33.6918 65.6 33.2918C65.2 32.8918 64.8 32.5918 64.2 32.4918C63.7 32.4918 62.7 32.4918 62.3 32.5918ZM71.8 32.4918C71.2 32.5918 70.3 32.8918 69.8 33.2918C68.7 34.0918 68 35.2918 67.7 36.7918C67.6 37.3918 67.6 38.4918 67.7 39.0918C67.9 39.9918 68.2 40.8918 68.7 41.4918C69.4 42.3918 70.3 42.9918 71.4 43.1918C72 43.2918 73 43.2918 73.5 43.0918C74.1 42.8918 74.5 42.6918 75 42.2918L75.4 41.8918V42.3918V42.8918H77.3H79.2V37.7918V32.6918H77.3H75.4V33.1918V33.6918L75.1 33.5918C74.6 33.0918 73.9 32.6918 73.1 32.5918C72.8 32.4918 72.1 32.4918 71.8 32.4918ZM86.3 32.5918C85.6 32.6918 84.9 33.1918 84.5 33.6918L84.3 33.8918V33.2918V32.6918H82.4H80.5V37.7918V42.8918H82.4H84.3V39.9918C84.3 36.8918 84.3 36.8918 84.5 36.3918C84.7 35.9918 85.1 35.7918 85.5 35.7918C85.9 35.7918 86.1 35.8918 86.4 36.0918C86.8 36.4918 86.8 36.3918 86.8 39.7918V42.7918H88.7H90.6V39.0918C90.6 35.3918 90.6 35.3918 90.5 34.9918C90.4 34.7918 90.3 34.3918 90.2 34.0918C90 33.6918 89.9 33.5918 89.6 33.2918C89.2 32.8918 88.9 32.6918 88.5 32.4918C87.8 32.4918 87 32.3918 86.3 32.5918ZM96.2 32.5918C94.5 32.8918 93.2 33.6918 92.4 35.0918C92.2 35.4918 92 35.9918 91.8 36.4918C91.7 36.9918 91.7 37.0918 91.7 37.8918C91.7 38.7918 91.7 39.0918 92 39.7918C92.6 41.4918 94 42.7918 95.9 43.1918C96.2 43.2918 96.5 43.2918 97.2 43.2918C98.2 43.2918 98.6 43.1918 99.3 42.8918L99.7 42.6918V40.9918V39.2918L99.4 39.4918C98.9 39.7918 98.6 39.8918 98 39.8918C97.4 39.8918 97.1 39.8918 96.7 39.6918C96.3 39.4918 96 39.1918 95.8 38.7918C95.7 38.4918 95.7 38.4918 95.7 37.9918C95.7 37.5918 95.7 37.4918 95.8 37.1918C96.1 36.3918 96.8 35.9918 97.8 35.8918C98.5 35.8918 98.8 35.8918 99.8 36.3918C99.8 36.3918 99.8 35.5918 99.8 34.6918V32.9918L99.5 32.8918C98.4 32.4918 97.2 32.3918 96.2 32.5918ZM104.8 32.5918C101.9 33.0918 100.1 35.5918 100.3 38.4918C100.4 39.4918 100.7 40.3918 101.2 41.0918C101.9 42.1918 103 42.8918 104.4 43.1918C105 43.2918 106.6 43.2918 107.3 43.1918C108.3 42.9918 109.2 42.4918 109.9 41.7918C110.2 41.4918 110.7 40.7918 110.7 40.7918C110.7 40.7918 110 40.4918 109.1 40.1918L107.5 39.5918L107.3 39.7918C107 40.0918 106.8 40.1918 106.4 40.2918C105.3 40.5918 104.2 39.9918 104 38.9918V38.7918H107.5H111V37.8918C111 37.2918 111 36.8918 110.9 36.6918C110.7 35.4918 110.2 34.6918 109.5 33.8918C108.8 33.1918 108 32.7918 106.9 32.5918C106.5 32.4918 105.3 32.4918 104.8 32.5918ZM51.2 37.8918V42.9918H53.1H55V37.8918V32.7918H53.1H51.2V37.8918ZM106.3 35.3918C106.6 35.4918 106.7 35.5918 107 35.7918C107.2 35.9918 107.4 36.1918 107.4 36.4918V36.6918H105.7C103.8 36.6918 103.9 36.6918 104.1 36.2918C104.4 35.5918 105.3 35.1918 106.3 35.3918ZM74 35.8918C74.5 35.9918 75.1 36.4918 75.3 36.9918C75.8 38.0918 75.3 39.3918 74.1 39.7918C73.7 39.8918 73.1 39.8918 72.7 39.7918C72.1 39.5918 71.5 39.0918 71.4 38.4918C71.3 38.1918 71.3 38.0918 71.3 37.7918C71.3 37.3918 71.3 37.2918 71.5 36.9918C71.9 36.0918 72.9 35.6918 74 35.8918Z" fill="#BFBFBF"/>
</svg>
