<svg width="211" height="31" viewBox="0 0 211 31" fill="none" xmlns="http://www.w3.org/2000/svg">
<path fill-rule="evenodd" clip-rule="evenodd" d="M53.5057 29.6953H48.4963L48.8094 27.8535H48.72C47.5571 29.5156 45.3208 30.2793 43.3528 30.2793C38.0303 30.2793 35.7045 26.0566 36.5991 21.1601C37.5831 15.5898 42.1899 12.0859 46.7073 12.0859C49.4356 12.0859 50.7327 13.4336 51.1799 14.4668H51.2694L51.5825 12.6699H56.5918L53.5057 29.6953ZM45.0524 25.5625C48.228 25.5625 49.7487 22.8672 50.0618 21.25C50.4196 19.1836 49.4803 16.9375 46.6178 16.9375C43.7553 16.9375 42.011 19.4082 41.6979 21.2949C41.3401 22.8672 42.011 25.5625 45.0524 25.5625Z" fill="#BFBFBF"/>
<path fill-rule="evenodd" clip-rule="evenodd" d="M59.3199 12.7148H64.0609L63.7479 14.5117H63.8373C64.374 13.7031 65.5816 12.1309 68.4889 12.1309L67.5496 17.252C65.2238 17.3418 63.5242 17.791 63.0322 20.3965L61.3326 29.7402H56.3232L59.3199 12.7148Z" fill="#BFBFBF"/>
<path fill-rule="evenodd" clip-rule="evenodd" d="M71.7986 6.11133H76.808L74.4822 18.8691H74.5717L80.3414 12.7148H86.29L78.5971 20.1719L82.9803 29.6953H77.3L74.0797 21.5195H73.9902L72.5143 29.6953H67.5049L71.7986 6.11133Z" fill="#BFBFBF"/>
<path fill-rule="evenodd" clip-rule="evenodd" d="M100.603 24.3945C99.4396 26.2813 98.0084 27.7637 96.3982 28.707C94.8328 29.6953 93.0437 30.2344 91.3441 30.2344C86.5137 30.2344 83.1592 26.2813 84.0984 21.25C84.9482 16.5332 89.4656 12.1309 94.5644 12.1309C99.6633 12.1309 102.66 16.2187 101.721 21.4297C101.631 22.1035 101.497 22.373 101.363 22.7773H88.7947C88.7053 24.7988 90.1812 25.9668 92.1492 25.9668C93.7146 25.9668 94.6539 25.248 95.5037 24.3496H100.603V24.3945ZM97.0691 19.3184C97.0244 18.3301 96.3982 16.3984 93.8041 16.3984C91.2099 16.3984 89.8682 18.2852 89.4656 19.3184H97.0691Z" fill="#BFBFBF"/>
<path fill-rule="evenodd" clip-rule="evenodd" d="M160.179 29.6953H155.169L155.482 27.8535H155.393C154.23 29.5156 151.994 30.2793 150.026 30.2793C144.703 30.2793 142.377 26.0566 143.272 21.1601C144.256 15.5898 148.863 12.0859 153.38 12.0859C156.108 12.0859 157.406 13.4336 157.853 14.4668H157.942L158.255 12.6699H163.265L160.179 29.6953ZM151.725 25.5625C154.901 25.5625 156.422 22.8672 156.735 21.25C157.092 19.1836 156.153 16.9375 153.291 16.9375C150.428 16.9375 148.684 19.4082 148.371 21.2949C148.058 22.8672 148.729 25.5625 151.725 25.5625Z" fill="#BFBFBF"/>
<path fill-rule="evenodd" clip-rule="evenodd" d="M192.248 23.2266C190.638 27.0898 186.702 30.2344 182.14 30.2344C177.041 30.2344 173.91 26.1914 174.804 21.1602C175.744 16.1738 180.306 12.1309 185.315 12.1309C189.788 12.1309 192.829 15.0957 192.874 19.2734H187.775C187.462 18.1055 186.657 16.8926 184.599 16.8926C182.229 16.8027 180.261 18.7793 179.814 21.2051C179.366 23.6758 180.619 25.5176 182.989 25.5176C185.047 25.5176 186.299 24.3047 187.015 23.2266H192.248Z" fill="#BFBFBF"/>
<path fill-rule="evenodd" clip-rule="evenodd" d="M196.988 6.11133H201.998L200.522 14.2871H200.611C201.729 12.7598 203.563 12.1758 205.308 12.1758C206.918 12.1758 208.707 12.7598 209.557 14.0625C210.675 15.7246 210.541 17.2519 210.004 20.2617L208.26 29.7402H203.25L204.95 20.4863C205.084 19.6777 205.576 16.9375 202.892 16.9375C200.075 16.9375 199.627 19.4531 199.493 20.3066L197.794 29.7402H192.784L196.988 6.11133Z" fill="#BFBFBF"/>
<path fill-rule="evenodd" clip-rule="evenodd" d="M29.8006 6.06641L20.9 19.4981V6.06641H16.6063L0.907227 29.6953H6.99004L15.8906 16.2637V29.6953H20.2291L29.1297 16.2637V29.6953H34.1391V6.06641H29.8006Z" fill="#BFBFBF"/>
<path fill-rule="evenodd" clip-rule="evenodd" d="M114.424 12.7148H111.248L112.187 7.72852H107.759L107.402 9.66016C106.999 11.8613 105.657 12.5352 103.779 12.7148H103.689L102.974 16.5781H105.434L103.018 29.6953H108.028L110.443 16.5781H113.619L114.424 12.7148Z" fill="#BFBFBF"/>
<path fill-rule="evenodd" clip-rule="evenodd" d="M150.518 0.0917969L140.857 6.11133H143.541L134.64 19.4981V6.06641H130.302L121.401 19.4981V6.06641H116.392V29.6953H120.73L129.631 16.2637V29.6953H133.924L149.623 6.11133H152.039L150.518 0.0917969Z" fill="#BFBFBF"/>
<path fill-rule="evenodd" clip-rule="evenodd" d="M175.878 12.7148H172.702L173.641 7.72852H169.213L168.856 9.66016C168.453 11.8613 167.111 12.5352 165.233 12.7148H165.143L164.428 16.5781H166.888L164.472 29.6953H169.482L171.897 16.5781H175.073L175.878 12.7148Z" fill="#BFBFBF"/>
</svg>
