<svg width="205" height="49" viewBox="0 0 205 49" fill="none" xmlns="http://www.w3.org/2000/svg">
<path d="M15.2249 23.2183C13.9962 23.2183 13 24.2092 13 25.4315C13 26.6536 13.9962 27.6447 15.2249 27.6447C16.4535 27.6447 17.4496 26.6534 17.4496 25.4315C17.4496 24.2092 16.4533 23.2183 15.2249 23.2183Z" fill="#BDBDBD"/>
<path d="M32.1185 27.6447C33.3471 27.6447 34.3431 26.6534 34.3431 25.4315C34.3431 24.209 33.3469 23.2183 32.1185 23.2183C30.8896 23.2183 29.8936 24.2092 29.8936 25.4315C29.8936 26.6534 30.8898 27.6447 32.1185 27.6447Z" fill="#BDBDBD"/>
<path d="M48.2485 25.4211C48.2485 11.9205 37.4477 0.976562 24.124 0.976562C10.8008 0.976562 0 11.9205 0 25.4211C0 36.6523 7.47618 46.1135 17.6606 48.9766C19.6529 44.0844 21.0327 38.015 21.6199 32.018C11.9449 31.6024 4.46646 28.8112 4.46646 25.4315C4.46646 23.0791 8.08865 21.0124 13.5501 19.8331L16.4796 9.93913L19.1638 19.0061C19.9634 18.9344 20.7838 18.8814 21.6199 18.8446C22.4401 18.8104 23.2761 18.792 24.124 18.792C24.9724 18.792 25.8083 18.8104 26.6287 18.8446C27.4645 18.8814 28.2849 18.9344 29.0845 19.0061L31.7685 9.93913L34.6978 19.8331C40.1594 21.0126 43.7816 23.0791 43.7816 25.4315C43.7816 28.8114 36.3032 31.6024 26.6284 32.018C27.2154 38.015 28.595 44.0844 30.5875 48.9766C40.7721 46.1135 48.2485 36.6521 48.2485 25.4211Z" fill="#BDBDBD"/>
<path d="M61.0264 36.2561V13.2676H69.5564C76.6083 13.2676 80.9748 17.5778 80.9748 24.7505C80.9748 31.9344 76.6083 36.2559 69.5677 36.2559H61.0264V36.2561ZM69.3532 31.5193C73.2458 31.5193 75.3782 29.7232 75.3782 24.7505C75.3782 19.8004 73.2458 18.0044 69.2742 18.0044H66.6114V31.5193H69.3532Z" fill="#BEBEBE"/>
<path d="M84.2246 13.2676H100.337V17.78H89.8095V22.4945H99.513V27.0179H89.8095V31.7437H100.337V36.2561H84.2246V13.2676Z" fill="#BEBEBE"/>
<path d="M113.708 20.5301H113.888L118.153 13.2676H124.404L117.431 24.7619L124.63 36.2561H118.221L113.888 28.915H113.708L109.375 36.2561H103.012L110.177 24.7619L103.192 13.2676H109.488L113.708 20.5301Z" fill="#BEBEBE"/>
<path d="M137.718 30.1048H137.91L143.078 13.2676H149.328L141.532 36.2559H134.096L126.3 13.2676H132.551L137.718 30.1048Z" fill="#BEBEBE"/>
<path d="M151.754 14.3787C151.754 12.9305 153.029 11.7637 154.586 11.7637C156.154 11.7637 157.418 12.9305 157.418 14.3787C157.418 15.8267 156.154 17.0055 154.586 17.0055C153.029 17.0055 151.754 15.8267 151.754 14.3787ZM151.822 19.0147H157.339V36.2561H151.822V19.0147Z" fill="#BEBEBE"/>
<path d="M160.172 27.7025C160.172 22.3594 163.534 18.79 168.77 18.79C173.689 18.79 177.164 21.9103 177.164 27.5902V28.9596H165.61V29.1053C165.61 31.2156 166.919 32.619 169.04 32.619C170.484 32.619 171.613 32.0015 172.041 30.8567L177.108 31.0028C176.476 34.3927 173.486 36.5816 168.939 36.5816C163.489 36.5816 160.172 33.2252 160.172 27.7025ZM172.03 25.772C172.008 24.0097 170.699 22.7522 168.882 22.7522C167.054 22.7522 165.689 24.0546 165.61 25.772H172.03Z" fill="#BEBEBE"/>
<path d="M178.541 19.0146H184.081L186.417 30.0597H186.563L189.068 19.0146H194.473L197.045 29.9813H197.192L199.46 19.0146H205L200.475 36.256H194.575L191.867 26.2098H191.675L188.967 36.256H183.055L178.541 19.0146Z" fill="#BEBEBE"/>
</svg>
