<svg width="180" height="45" viewBox="0 0 180 45" fill="none" xmlns="http://www.w3.org/2000/svg">
<path d="M59.5156 33.8635V12.0852H67.8762C69.3768 12.0852 70.702 12.3483 71.8518 12.8745C73.0211 13.4006 73.9371 14.1802 74.5997 15.2131C75.2623 16.246 75.5936 17.5225 75.5936 19.0426C75.5936 20.5237 75.2526 21.7807 74.5705 22.8136C73.9079 23.8465 72.9919 24.6357 71.8226 25.1814C70.6728 25.7076 69.3573 25.9707 67.8762 25.9707H64.0467V33.8635H59.5156ZM64.0467 22.0243H67.9054C68.5485 22.0243 69.104 21.8976 69.5717 21.6443C70.0394 21.3909 70.3999 21.0401 70.6533 20.5919C70.9261 20.1437 71.0625 19.6272 71.0625 19.0426C71.0625 18.4384 70.9261 17.9122 70.6533 17.464C70.3999 17.0158 70.0394 16.665 69.5717 16.4116C69.104 16.1583 68.5485 16.0316 67.9054 16.0316H64.0467V22.0243Z" fill="#BEBEBE"/>
<path d="M78.1782 33.8635V17.9025H82.5631V33.8635H78.1782ZM78.1782 16.4701V12.0852H82.5631V16.4701H78.1782Z" fill="#BEBEBE"/>
<path d="M85.7719 33.8635V17.9025H89.8644V21.0596L89.6306 20.358C90.0009 19.4031 90.5953 18.7015 91.4138 18.2533C92.2518 17.7855 93.2262 17.5517 94.337 17.5517C95.5453 17.5517 96.5977 17.805 97.4942 18.3117C98.4101 18.8184 99.1215 19.5298 99.6282 20.4457C100.135 21.3422 100.388 22.3946 100.388 23.6029V33.8635H96.0033V24.5383C96.0033 23.9147 95.8766 23.3787 95.6233 22.9305C95.3894 22.4823 95.0484 22.1315 94.6001 21.8781C94.1714 21.6248 93.6647 21.4981 93.08 21.4981C92.5149 21.4981 92.0082 21.6248 91.5599 21.8781C91.1117 22.1315 90.7609 22.4823 90.5076 22.9305C90.2737 23.3787 90.1568 23.9147 90.1568 24.5383V33.8635H85.7719Z" fill="#BEBEBE"/>
<path d="M103.272 33.8635V11.7344H107.656V25.9122L106.019 25.3861L113.064 17.9025H118.473L112.684 24.3337L118.443 33.8635H113.474L108.65 25.7661L111.194 25.123L106.312 30.4433L107.656 27.9001V33.8635H103.272Z" fill="#BEBEBE"/>
<path d="M128.644 34.2143C127.279 34.2143 125.993 33.9707 124.785 33.4835C123.596 32.9768 122.563 32.2655 121.686 31.3495C120.829 30.4336 120.186 29.352 119.757 28.1047L123.469 26.4384C124.015 27.6272 124.765 28.5627 125.72 29.2448C126.695 29.9269 127.767 30.2679 128.936 30.2679C129.56 30.2679 130.096 30.1705 130.544 29.9756C130.992 29.7807 131.343 29.5176 131.596 29.1863C131.85 28.8355 131.976 28.4263 131.976 27.9585C131.976 27.4518 131.82 27.0231 131.508 26.6723C131.197 26.302 130.709 26.0097 130.047 25.7953L125.779 24.3921C124.044 23.827 122.739 23.0279 121.862 21.9951C120.985 20.9427 120.546 19.6857 120.546 18.224C120.546 16.9378 120.858 15.8075 121.482 14.833C122.125 13.8586 123.012 13.0986 124.142 12.5529C125.292 12.0072 126.607 11.7344 128.088 11.7344C129.394 11.7344 130.602 11.9585 131.713 12.4067C132.824 12.855 133.779 13.4883 134.578 14.3069C135.396 15.1254 136.01 16.1095 136.42 17.2594L132.736 18.9256C132.327 17.9122 131.713 17.1229 130.895 16.5578C130.076 15.9731 129.141 15.6808 128.088 15.6808C127.484 15.6808 126.948 15.7782 126.48 15.9731C126.013 16.168 125.652 16.4506 125.399 16.8209C125.146 17.1717 125.019 17.5809 125.019 18.0486C125.019 18.5553 125.184 19.0036 125.516 19.3933C125.847 19.7636 126.344 20.056 127.007 20.2703L131.187 21.615C132.941 22.1802 134.247 22.9695 135.104 23.9829C135.981 24.9963 136.42 26.2338 136.42 27.6954C136.42 28.9622 136.088 30.0925 135.426 31.0864C134.763 32.0609 133.847 32.8307 132.678 33.3958C131.528 33.9415 130.183 34.2143 128.644 34.2143Z" fill="#BEBEBE"/>
<path d="M144.267 34.2143C143.118 34.2143 142.124 34.0292 141.286 33.6589C140.448 33.2886 139.805 32.7624 139.356 32.0803C138.908 31.3788 138.684 30.5505 138.684 29.5956C138.684 28.6991 138.889 27.9098 139.298 27.2277C139.707 26.5261 140.331 25.9415 141.169 25.4738C142.026 25.006 143.088 24.6747 144.355 24.4798L149.237 23.6906V26.9062L145.144 27.637C144.521 27.7539 144.043 27.9585 143.712 28.2509C143.381 28.5237 143.215 28.9232 143.215 29.4494C143.215 29.9366 143.4 30.3166 143.77 30.5895C144.141 30.8623 144.599 30.9987 145.144 30.9987C145.865 30.9987 146.499 30.8428 147.045 30.531C147.59 30.2192 148.009 29.8002 148.302 29.274C148.613 28.7283 148.769 28.1339 148.769 27.4908V23.3398C148.769 22.7356 148.526 22.2289 148.038 21.8197C147.571 21.4104 146.928 21.2058 146.109 21.2058C145.33 21.2058 144.638 21.4201 144.034 21.8489C143.449 22.2776 143.02 22.8428 142.747 23.5444L139.239 21.8781C139.551 20.9817 140.048 20.2119 140.73 19.5687C141.412 18.9256 142.231 18.4287 143.186 18.0779C144.141 17.7271 145.183 17.5517 146.314 17.5517C147.658 17.5517 148.847 17.7953 149.88 18.2825C150.913 18.7697 151.712 19.4518 152.277 20.3288C152.862 21.1863 153.154 22.1899 153.154 23.3398V33.8635H149.062V31.2911L150.056 31.1157C149.588 31.8173 149.071 32.4019 148.506 32.8696C147.941 33.3179 147.308 33.6492 146.606 33.8635C145.904 34.0974 145.125 34.2143 144.267 34.2143Z" fill="#BEBEBE"/>
<path d="M156.37 33.8635V11.7344H160.755V33.8635H156.37Z" fill="#BEBEBE"/>
<path d="M171.652 34.2143C169.956 34.2143 168.485 33.8441 167.238 33.1035C165.99 32.3434 165.026 31.33 164.344 30.0633C163.662 28.7965 163.321 27.3934 163.321 25.8538C163.321 24.2557 163.671 22.8331 164.373 21.5858C165.094 20.3385 166.059 19.3544 167.267 18.6333C168.475 17.9122 169.839 17.5517 171.36 17.5517C172.626 17.5517 173.747 17.7563 174.721 18.1656C175.696 18.5553 176.514 19.1108 177.177 19.8318C177.859 20.5529 178.375 21.3909 178.726 22.3459C179.077 23.2813 179.252 24.3044 179.252 25.4153C179.252 25.7271 179.233 26.0389 179.194 26.3507C179.174 26.6431 179.126 26.8964 179.048 27.1108H167.092V23.8952H176.563L174.487 25.4153C174.682 24.5773 174.673 23.8367 174.458 23.1936C174.244 22.531 173.864 22.0145 173.318 21.6443C172.792 21.2545 172.139 21.0596 171.36 21.0596C170.599 21.0596 169.947 21.2448 169.401 21.615C168.855 21.9853 168.446 22.531 168.173 23.2521C167.9 23.9731 167.793 24.8501 167.852 25.883C167.774 26.7795 167.881 27.5688 168.173 28.2509C168.465 28.933 168.914 29.4689 169.518 29.8587C170.122 30.2289 170.853 30.4141 171.71 30.4141C172.49 30.4141 173.152 30.2582 173.698 29.9464C174.263 29.6345 174.702 29.2058 175.014 28.6601L178.522 30.3264C178.21 31.1059 177.713 31.788 177.031 32.3727C176.368 32.9573 175.579 33.4153 174.663 33.7466C173.747 34.0584 172.743 34.2143 171.652 34.2143Z" fill="#BEBEBE"/>
<circle cx="22.3452" cy="22.9741" r="21.5024" fill="#BEBEBE" fill-opacity="0.3" stroke="#BEBEBE"/>
<circle cx="8.74243" cy="22.9744" r="3.04517" fill="#BEBEBE"/>
<circle cx="32.5872" cy="22.9744" r="3.04517" fill="#BEBEBE"/>
<rect x="13.3555" y="17.4023" width="2.5293" height="7.16748" rx="1.26465" fill="#BEBEBE"/>
<rect x="25.4414" y="17.4023" width="2.5293" height="7.16748" rx="1.26465" fill="#BEBEBE"/>
<rect x="29.7871" y="14.0063" width="1.28809" height="6.16162" rx="0.644043" transform="rotate(90 29.7871 14.0063)" fill="#BEBEBE"/>
<rect x="17.7012" y="14.0063" width="1.28809" height="6.16162" rx="0.644043" transform="rotate(90 17.7012 14.0063)" fill="#BEBEBE"/>
<path d="M15.0547 29.1074C16.9003 30.9666 21.7069 33.5695 26.1689 29.1074" stroke="#BEBEBE" stroke-width="2" stroke-linecap="round"/>
<path d="M34.8652 12.4077L35.7457 14.787L38.125 15.6675L35.7457 16.5479L34.8652 18.9272L33.9848 16.5479L31.6055 15.6675L33.9848 14.787L34.8652 12.4077Z" fill="#BEBEBE"/>
</svg>
