<svg width="206" height="51" viewBox="0 0 206 51" fill="none" xmlns="http://www.w3.org/2000/svg">
<path fill-rule="evenodd" clip-rule="evenodd" d="M42.9071 8.04375L43.1663 9.66379C43.3607 11.1542 43.4579 12.6447 43.4255 14.1675C43.4255 17.5048 43.0367 20.8097 42.2591 24.0497C41.2223 28.4238 39.4078 32.6035 36.913 36.362C34.0293 40.6389 29.8496 44.8186 23.7907 48.2531L23.0454 48.6743L22.3002 48.2531C16.2413 44.8834 12.0616 40.6713 9.17791 36.362C6.65065 32.6035 4.86861 28.4562 3.83179 24.0497C3.05417 20.8097 2.66536 17.5048 2.66536 14.1675C2.66536 12.6771 2.73016 11.1542 2.92457 9.66379L3.15137 8.04375C3.18377 7.91415 3.18377 7.78455 3.15137 7.65494C3.11897 7.52534 3.08657 7.39574 2.98937 7.29853C2.92457 7.20133 2.82736 7.10413 2.73016 7.03933C2.63296 6.97453 2.50335 6.94213 2.40615 6.90973C2.27655 6.87732 2.14695 6.87732 2.01734 6.90973C1.88774 6.94213 1.75814 7.00693 1.66094 7.07173C1.56373 7.13653 1.46653 7.23373 1.40173 7.33094C1.33693 7.46054 1.30453 7.59014 1.27213 7.71974L1.01292 9.33978C0.818516 10.9274 0.721313 12.5475 0.721313 14.1675C0.721313 17.6668 1.14252 21.1337 1.95254 24.5357C2.50336 26.8362 3.24857 29.1042 4.18819 31.2751C5.12782 33.446 6.26184 35.5196 7.59027 37.4961C10.6359 42.0322 15.0425 46.4711 21.393 49.9703L22.5918 50.6508C22.7538 50.7156 22.9158 50.748 23.0778 50.748C23.2398 50.748 23.4018 50.7156 23.5639 50.6508L24.7627 49.9703C31.0808 46.4387 35.5197 41.9998 38.5654 37.4961C41.2223 33.5432 43.1339 29.1367 44.2031 24.5357C45.0132 21.1337 45.402 17.6668 45.402 14.1675C45.402 12.5475 45.3048 10.9274 45.1104 9.30739L44.8512 7.68735C44.8188 7.55774 44.7864 7.42814 44.7216 7.29853C44.6568 7.20133 44.5595 7.10413 44.4623 7.03933C44.3651 6.97453 44.2355 6.90973 44.1059 6.87733C43.9763 6.84493 43.8467 6.84493 43.7171 6.87733C43.5875 6.90973 43.4579 6.94213 43.3283 7.00693C43.2311 7.07173 43.1339 7.16893 43.0691 7.26614C43.0043 7.36334 42.9395 7.49294 42.9071 7.62254V8.04375Z" fill="#D9D9D9"/>
<path fill-rule="evenodd" clip-rule="evenodd" d="M8.59469 6.94222L23.1102 2.37371L37.9174 7.03943C38.047 7.07183 38.1766 7.07182 38.3062 7.07182C38.4358 7.07182 38.5654 7.03942 38.695 6.97462C38.8246 6.90982 38.9218 6.84502 39.019 6.71542C39.1162 6.61822 39.181 6.48861 39.181 6.35901C39.2134 6.22941 39.2134 6.0998 39.2134 5.9702C39.2134 5.8406 39.181 5.71099 39.1162 5.58139C39.0514 5.45179 38.9866 5.35459 38.8894 5.25738C38.7922 5.16018 38.6626 5.09538 38.533 5.09538L23.4018 0.300066C23.2074 0.235264 23.013 0.235264 22.8186 0.300066L8.04388 4.96577C7.91428 4.99817 7.81708 5.06298 7.68747 5.12778C7.59027 5.22498 7.49307 5.32218 7.46067 5.45179C7.39587 5.58139 7.36346 5.71099 7.36346 5.84059C7.36346 5.9702 7.36346 6.0998 7.39586 6.22941C7.42827 6.35901 7.49307 6.48861 7.55787 6.58581C7.62267 6.68301 7.75227 6.78022 7.88188 6.84502C7.97908 6.90982 8.10868 6.94222 8.27069 6.94222C8.33549 6.97462 8.46509 6.97462 8.59469 6.94222Z" fill="#D9D9D9"/>
<path fill-rule="evenodd" clip-rule="evenodd" d="M1.4341 8.33514L22.203 50.1969C22.2678 50.3589 22.3974 50.4885 22.527 50.5857C22.851 50.7801 23.2398 50.7801 23.5638 50.5857C23.7258 50.4885 23.8554 50.3589 23.9526 50.1969L36.6213 25.7343L36.6537 25.7019L44.7539 8.30273C44.8187 8.17313 44.8511 8.04353 44.8511 7.91393C44.8511 7.78432 44.8511 7.65472 44.7863 7.52512C44.7539 7.39552 44.6891 7.26591 44.5919 7.16871C44.5271 7.07151 44.3975 6.9743 44.3003 6.9095C44.2031 6.8447 44.0735 6.8123 43.9115 6.8123C43.7819 6.8123 43.6523 6.8123 43.5227 6.8447C43.3931 6.8771 43.2635 6.9419 43.1663 7.03911C43.0691 7.13631 42.9719 7.23351 42.9395 7.36311L34.8393 24.7623L23.0454 47.5401L3.15134 7.36311C3.08654 7.26591 2.98934 7.13631 2.92454 7.03911C2.82733 6.9419 2.69773 6.8771 2.56813 6.8447C2.43852 6.7799 2.30892 6.7799 2.17932 6.8123C2.04971 6.8123 1.92011 6.8447 1.79051 6.9095C1.69331 6.9743 1.5637 7.07151 1.4989 7.16871C1.4341 7.26591 1.3693 7.39552 1.3369 7.52512C1.3045 7.65472 1.2721 7.78432 1.3045 7.91393C1.3369 8.07593 1.3693 8.20553 1.4341 8.33514Z" fill="#D9D9D9"/>
<path fill-rule="evenodd" clip-rule="evenodd" d="M11.3812 26.9981H34.5153C34.6449 26.9981 34.7745 26.9657 34.9041 26.9333C35.0337 26.9009 35.1309 26.8037 35.1957 26.7065C35.2929 26.6093 35.3577 26.5121 35.3901 26.3825C35.4873 26.1233 35.4873 25.8641 35.3901 25.6049C35.3577 25.4753 35.2605 25.3781 35.1957 25.2809C35.0985 25.1837 35.0013 25.1189 34.9041 25.0541C34.7745 25.0217 34.6449 24.9893 34.5153 24.9893H11.3812C11.2516 24.9893 11.122 25.0217 10.9924 25.0541C10.8628 25.0865 10.7656 25.1837 10.7007 25.2809C10.6035 25.3781 10.5387 25.4753 10.5063 25.6049C10.4091 25.8641 10.4091 26.1233 10.5063 26.3825C10.5387 26.5121 10.6035 26.6093 10.7007 26.7065C10.798 26.8037 10.8952 26.8685 10.9924 26.9333C11.122 26.9657 11.2516 26.9657 11.3812 26.9981ZM75.8587 18.2823H60.8247C60.6951 18.2823 60.5655 18.3147 60.4359 18.3471C60.3063 18.3795 60.2091 18.4767 60.1443 18.5739C60.0471 18.6711 59.9823 18.7683 59.9499 18.8979C59.9175 19.0275 59.8851 19.1571 59.8851 19.2867V31.761C59.8851 31.8906 59.9175 32.0202 59.9499 32.1499C59.9823 32.2795 60.0471 32.3767 60.1443 32.4739C60.2415 32.5711 60.3387 32.6359 60.4359 32.7007C60.5655 32.7331 60.6951 32.7655 60.8247 32.7655H75.8587V34.8715H60.8247C60.6303 34.8715 60.4359 34.8391 60.2415 34.8067C60.0471 34.7743 59.8527 34.7095 59.6583 34.6447C59.4639 34.5799 59.3019 34.4827 59.1399 34.3855C58.9779 34.2559 58.8483 34.1263 58.6863 33.9967C58.3947 33.7051 58.2003 33.3811 58.0383 33.0247C57.9735 32.8303 57.9087 32.6359 57.8763 32.4415C57.8439 32.2471 57.8115 32.0527 57.8115 31.8582V19.3191C57.8115 19.1247 57.8439 18.9303 57.8763 18.7359C57.9087 18.5415 57.9735 18.3471 58.0383 18.1527C58.1031 17.9583 58.2003 17.7639 58.2975 17.6019C58.3947 17.4399 58.5243 17.2779 58.6863 17.1483C58.8159 17.0187 58.9779 16.8891 59.1399 16.7595C59.3019 16.6623 59.4639 16.5651 59.6583 16.5003C59.8527 16.4355 60.0471 16.3707 60.2415 16.3383C60.4359 16.3059 60.6303 16.2735 60.8247 16.2735H75.8587V18.2823ZM104.08 16.1763V18.2823H89.5966V24.4709H101.228V26.6093H89.5966V32.7979H104.08V34.9039H87.5878V16.1763H104.08Z" fill="#D9D9D9"/>
<path d="M133.921 19.3514V24.8271C133.921 25.0215 133.888 25.2159 133.856 25.4103C133.824 25.6047 133.759 25.7991 133.694 25.9935C133.629 26.1879 133.532 26.3823 133.435 26.5443C133.305 26.7063 133.208 26.8684 133.046 26.998C132.916 27.1276 132.754 27.2572 132.592 27.3868C132.43 27.484 132.268 27.5812 132.074 27.646C131.88 27.7108 131.685 27.7756 131.491 27.8404C131.296 27.8728 131.102 27.9052 130.908 27.9052H128.154L133.824 34.8713H131.102L125.464 27.9052H118.855C118.531 27.9052 118.207 27.8728 117.883 27.808V34.8713H115.841V16.2085H130.94C131.134 16.2085 131.329 16.2409 131.523 16.2733C131.718 16.3057 131.912 16.3705 132.106 16.4353C132.301 16.5001 132.463 16.5973 132.625 16.7269C132.949 16.9537 133.208 17.2453 133.435 17.5693C133.532 17.7313 133.629 17.9257 133.694 18.1201C133.759 18.3145 133.824 18.509 133.856 18.7034C133.888 18.9302 133.921 19.157 133.921 19.3514ZM118.822 25.8315H130.908C131.037 25.8315 131.167 25.7991 131.296 25.7667C131.426 25.7343 131.523 25.6695 131.588 25.5399C131.685 25.4427 131.75 25.3455 131.782 25.2159C131.815 25.0863 131.847 24.9567 131.847 24.8271V19.3514C131.847 19.0922 131.75 18.833 131.588 18.6386C131.426 18.4441 131.167 18.3145 130.908 18.3145H118.822C118.693 18.3145 118.563 18.347 118.433 18.3794C118.304 18.4118 118.207 18.5089 118.142 18.6062C118.045 18.7034 117.98 18.8006 117.947 18.9302C117.915 19.0598 117.883 19.1894 117.883 19.319V24.7947C117.883 25.0539 117.98 25.3131 118.207 25.5075C118.336 25.7019 118.595 25.8315 118.822 25.8315Z" fill="#D9D9D9"/>
<path fill-rule="evenodd" clip-rule="evenodd" d="M144.743 16.1763H162.822V18.2823H154.819V34.8715H152.778V18.2823H144.743V16.1763ZM173.839 34.9039V16.2087H175.88V34.9039H173.839ZM203.064 16.1763H205.689L198.139 25.5401L205.721 34.9039H203.064L196.325 26.6093H190.493V34.9039H188.451V16.2087H190.525V24.5033H196.357L203.064 16.1763Z" fill="#D9D9D9"/>
</svg>
