<svg width="225" height="27" viewBox="0 0 225 27" fill="none" xmlns="http://www.w3.org/2000/svg">
<path fill-rule="evenodd" clip-rule="evenodd" d="M15.4219 0.915527H24.8379C26.8958 1.14705 31.0116 3.55497 31.0116 11.3345C31.0116 19.1141 26.8958 21.1618 24.8379 21.2133H15.4219V19.8241H16.8109V2.45905H15.4219V0.915527ZM20.4383 2.45905V19.8241H23.8341C24.9918 19.361 27.3688 17.0148 27.6158 11.3345C27.8628 5.65421 25.1976 3.05074 23.8341 2.45905H20.4383Z" fill="#BEBEBE"/>
<path d="M31.5615 2.28528V0.976198H38.574V2.28528H36.9377V19.7237H38.574V21.36H31.5615V19.7237H33.3845V2.28528H31.5615Z" fill="#BEBEBE"/>
<path d="M48.6725 11.9628V13.4589H50.7763V18.4146C50.7763 19.0068 50.1405 20.1911 47.5972 20.1911C44.418 20.1911 42.8285 14.8146 42.8285 11.9628C42.8285 9.11106 43.483 2.28528 47.5972 2.28528C50.8885 2.28528 51.9919 4.90321 52.1321 6.21218H53.675V2.89278C53.675 0.910488 49.6231 0.414998 47.5972 0.415039C40.2571 0.415039 39.5558 6.2123 39.2753 11.9628C38.9948 17.7133 42.1739 21.6873 47.5972 21.6873C51.9358 21.6873 53.7685 19.5055 54.1425 18.4146V13.4589H55.3113V11.9628H48.6725Z" fill="#BEBEBE"/>
<path d="M55.3115 2.28516V0.976074H62.324V2.28516H60.6877V19.7235H62.324V21.3599H55.3115V19.7235H57.1345V2.28516H55.3115Z" fill="#BEBEBE"/>
<path d="M63.8828 0.941895L63.2305 4.65381H64.7354L65.5881 2.44694H69.1495V19.8526H67.6949V21.3575H74.1656V19.8526H72.6608V2.44694H76.172L77.3759 4.65381H78.8305L78.2286 0.941895H63.8828Z" fill="#BEBEBE"/>
<path fill-rule="evenodd" clip-rule="evenodd" d="M76.9746 21.3575V19.8526H78.4794L84.4485 0.941895H85.9533L92.0227 19.8526H93.5275V21.3575H87.3578V19.8526H88.4613L86.7559 14.636H81.8903L80.235 19.8526H81.2884V21.3575H76.9746ZM84.4485 7.11187L82.3418 12.9305H86.3044L84.4485 7.11187Z" fill="#BEBEBE"/>
<path d="M94.6055 0.904297V2.33789H96.0388V19.8206H94.6055V21.4533H109.26V17.5108H107.627V19.0241L106.672 19.8206H99.5034V2.33789H100.977V0.904297H94.6055Z" fill="#BEBEBE"/>
<path fill-rule="evenodd" clip-rule="evenodd" d="M192.211 21.208V19.7032H193.716L199.685 0.79248H201.19L207.259 19.7032H208.764V21.208H202.594V19.7032H203.698L201.992 14.4865H197.127L195.471 19.7032H196.525V21.208H192.211ZM199.685 6.96246L197.578 12.7811H201.541L199.685 6.96246Z" fill="#BEBEBE"/>
<path d="M209.842 0.754883V2.18848H211.275V19.6711H209.842V21.3039H224.497V17.3614H222.864V18.8747L221.908 19.6711H214.74V2.18848H216.213V0.754883H209.842Z" fill="#BEBEBE"/>
<path d="M116.443 0.887325V2.31213H117.915V21.6634C117.915 23.9065 116.138 25.3253 115.249 25.7543L115.8 26.9954C119.183 26.9954 121.04 23.4407 121.546 21.6634V2.31213H122.879V0.887325H116.443Z" fill="#BEBEBE"/>
<path fill-rule="evenodd" clip-rule="evenodd" d="M131.75 0.289551C136.163 0.289551 139.794 3.50724 139.794 11.3672C139.794 19.2271 136.071 21.6634 131.75 21.6634C127.429 21.6634 123.752 18.4919 123.752 11.3672C123.752 4.24245 126.924 0.289551 131.75 0.289551ZM131.75 2.31213C127.889 2.31213 127.261 8.34883 127.429 11.3672C127.429 14.3243 128.294 20.2385 131.75 20.2385C135.207 20.2385 136.132 14.3243 136.163 11.3672C136.301 8.34883 135.611 2.31213 131.75 2.31213Z" fill="#BEBEBE"/>
<path d="M140.138 0.824707V2.45459H141.541V14.953C141.541 16.5833 142.991 21.7003 149.104 21.7003C153.994 21.7003 155.187 17.2021 155.172 14.953V2.45459H156.711V0.824707H151.866V2.45459H153.315V14.953C153.194 16.6738 152.183 20.1154 149.104 20.1154C146.025 20.1154 145.194 16.6738 145.164 14.953V2.45459H146.613V0.824707H140.138Z" fill="#BEBEBE"/>
<path d="M176.274 0.824707V2.45459H177.814V19.7531H176.274V21.3833H180.757V19.7531H179.489V5.48876L188.682 21.3833H190.719L190.448 2.45459H191.987V0.824707H187.278V2.45459H188.682V14.4096L180.757 0.824707H176.274Z" fill="#BEBEBE"/>
<path fill-rule="evenodd" clip-rule="evenodd" d="M158.025 2.45459V0.824707H167.806C169.557 1.30768 173.059 3.07062 173.059 6.25859C173.059 9.44655 170.161 11.2096 168.712 11.6926C169.859 13.9568 172.452 18.7388 173.648 19.7531H175.097V21.3833H170.659C168.847 18.6965 165.225 13.0511 165.225 11.9643H163.142V19.7531H164.364V21.3833H158.025V19.7531H159.519V2.45459H158.025ZM163.142 2.45459V10.3794H166.855C167.746 10.002 169.527 8.64956 169.527 6.25859C169.527 3.86761 167.746 2.72635 166.855 2.45459H163.142Z" fill="#BEBEBE"/>
<rect x="0.637695" y="0.994629" width="12.334" height="20.2046" fill="#4A4A4C"/>
</svg>
