<svg width="150" height="41" viewBox="0 0 150 41" fill="none" xmlns="http://www.w3.org/2000/svg">
<path d="M40.7265 20.2735C40.7442 24.3009 39.5673 28.2432 37.3446 31.6018C35.1218 34.9603 31.9531 37.5843 28.239 39.142C24.525 40.6997 20.4324 41.121 16.4789 40.3527C12.5254 39.5845 8.88849 37.6611 6.02808 34.8259C3.16767 31.9906 1.21223 28.3709 0.409049 24.4243C-0.394133 20.4777 -0.00899004 16.3816 1.51577 12.6539C3.04054 8.92627 5.63644 5.73444 8.97522 3.4821C12.314 1.22975 16.2457 0.0180416 20.2731 0.000199834C22.9473 -0.0116468 25.5976 0.503344 28.0727 1.51577C30.5478 2.52819 32.7993 4.01822 34.6986 5.90077C36.5979 7.78333 38.1077 10.0215 39.142 12.4876C40.1763 14.9537 40.7147 17.5994 40.7265 20.2735Z" fill="#BEBEBE"/>
<path d="M39.1992 20.2809C39.2176 24.006 38.1308 27.6528 36.0764 30.7602C34.0219 33.8676 31.0921 36.296 27.6575 37.7381C24.2228 39.1803 20.4376 39.5715 16.7806 38.8623C13.1237 38.153 9.75912 36.3752 7.11259 33.7537C4.46607 31.1321 2.65642 27.7846 1.91254 24.1345C1.16865 20.4844 1.52395 16.6957 2.93348 13.2475C4.34301 9.79931 6.74347 6.8466 9.83125 4.76279C12.919 2.67898 16.5554 1.55768 20.2805 1.54071C25.2739 1.51874 30.0717 3.48039 33.6192 6.99449C37.1668 10.5086 39.1739 15.2875 39.1992 20.2809Z" fill="#4E4E4E"/>
<path d="M20.7105 2.75361C21.9077 2.54111 23.1329 2.54111 24.3301 2.75361C25.5388 2.94525 26.7073 3.33672 27.7875 3.91196C28.8617 4.5022 29.7899 5.30345 30.7136 6.05454C31.6373 6.80562 32.5566 7.57441 33.4316 8.4155C34.325 9.24342 35.1045 10.1862 35.7498 11.2191C36.4141 12.244 36.9587 13.3416 37.373 14.4906C38.1595 16.8014 38.4325 19.2907 38.04 21.6649H37.9234C37.5294 19.3114 36.9952 17.0684 36.1527 14.9347C35.7571 13.8622 35.2918 12.8167 34.7597 11.805C34.2047 10.7876 33.5928 9.80229 32.927 8.85376C32.2501 7.89829 31.4205 7.06075 30.4716 6.37474C29.5154 5.69301 28.4161 5.25181 27.3522 4.83274C26.2882 4.41367 25.2332 3.98427 24.1235 3.66553C23.0139 3.3468 21.8865 3.10776 20.709 2.87609L20.7105 2.75361Z" fill="#4E4E4E"/>
<path d="M29.9154 13.6334C28.549 13.2379 27.1325 12.6772 25.6982 12.1106C25.6155 11.7505 25.2968 11.3019 24.652 10.7545C23.715 9.94143 21.9546 9.96209 20.4332 10.3221C18.754 9.92668 17.0954 9.78649 15.5032 10.1746C2.48102 13.7618 9.86494 22.5136 5.08398 31.3111C5.76424 32.7543 13.0965 41.1741 23.7061 38.9149C23.7061 38.9149 20.0776 30.1956 28.2657 26.0108C34.9074 22.6036 39.7061 16.2998 29.9154 13.6334Z" fill="#BEBEBE"/>
<path d="M31.5252 19.3602C31.526 19.5164 31.4806 19.6692 31.3946 19.7996C31.3086 19.9299 31.1858 20.0317 31.0419 20.0923C30.898 20.1528 30.7394 20.1694 30.5861 20.1398C30.4328 20.1102 30.2917 20.0358 30.1807 19.926C30.0696 19.8162 29.9937 19.676 29.9623 19.523C29.931 19.37 29.9458 19.2112 30.0047 19.0666C30.0636 18.922 30.1641 18.7982 30.2935 18.7107C30.4228 18.6232 30.5752 18.5761 30.7313 18.5752C30.9406 18.5744 31.1416 18.6566 31.2904 18.8037C31.4392 18.9509 31.5236 19.151 31.5252 19.3602Z" fill="white"/>
<path d="M20.4336 10.3161C21.3824 10.384 24.8132 11.4966 25.6985 12.1046C24.9607 9.96494 22.4773 9.68015 20.4336 10.3161Z" fill="#BEBEBE"/>
<path d="M21.3373 15.7272C21.3376 16.4475 21.1243 17.1517 20.7244 17.7507C20.3244 18.3498 19.7559 18.8168 19.0905 19.0927C18.4252 19.3686 17.693 19.441 16.9865 19.3008C16.28 19.1606 15.6309 18.814 15.1214 18.3049C14.6119 17.7958 14.2648 17.147 14.124 16.4406C13.9832 15.7342 14.055 15.002 14.3304 14.3364C14.6057 13.6709 15.0723 13.1019 15.671 12.7015C16.2697 12.3011 16.9737 12.0872 17.694 12.0869C18.6594 12.0869 19.5852 12.4702 20.2681 13.1525C20.951 13.8349 21.335 14.7604 21.3358 15.7258L21.3373 15.7272Z" fill="white"/>
<path d="M20.2561 15.7594C20.2561 16.266 20.1059 16.7613 19.8244 17.1826C19.5429 17.6038 19.1428 17.9322 18.6748 18.1261C18.2067 18.3199 17.6916 18.3707 17.1947 18.2718C16.6978 18.173 16.2414 17.929 15.8831 17.5708C15.5248 17.2125 15.2809 16.7561 15.182 16.2592C15.0832 15.7622 15.1339 15.2472 15.3278 14.7791C15.5217 14.311 15.85 13.9109 16.2713 13.6295C16.6925 13.348 17.1878 13.1978 17.6945 13.1978C18.3739 13.1978 19.0254 13.4676 19.5058 13.948C19.9862 14.4284 20.2561 15.08 20.2561 15.7594Z" fill="#58595B"/>
<path d="M34.4751 20.9653C31.5239 23.0444 28.1684 24.6218 23.4081 24.6218C21.18 24.6218 20.7284 22.2609 19.2558 23.4148C18.4958 24.0139 15.8161 25.3537 13.6898 25.2519C11.5635 25.1501 8.11645 23.9047 7.15583 19.3643C6.77512 23.9047 6.58034 27.2469 4.87012 31.0791C8.26401 36.5137 16.3562 40.7059 23.7018 38.8998C22.9182 33.3884 27.742 27.9906 30.4482 25.2327C31.4811 24.1865 33.4437 22.4793 34.4751 20.9668V20.9653Z" fill="#BEBEBE"/>
<path d="M34.3596 21.1009C33.4433 21.9361 32.3528 22.5544 31.2431 23.1004C30.1197 23.6331 28.9489 24.0595 27.746 24.3738C26.5419 24.6852 25.2861 24.9198 24.0142 24.8047C22.7422 24.6896 21.4422 24.2572 20.5996 23.304L20.6394 23.2583C21.6724 23.9282 22.8647 24.1643 24.051 24.1982C25.2536 24.2352 26.4564 24.1362 27.6368 23.9031C28.829 23.6532 29.9954 23.2925 31.1207 22.8259C32.2465 22.3611 33.3606 21.8225 34.3198 21.0552L34.3596 21.1009Z" fill="#58595B"/>
<path d="M55.837 27.609C54.8643 27.609 53.9584 27.4327 53.1194 27.0801C52.2926 26.7275 51.5691 26.235 50.949 25.6027C50.3289 24.9705 49.8426 24.2288 49.4899 23.3776C49.1495 22.5265 48.9793 21.5963 48.9793 20.5871C48.9793 19.5779 49.1495 18.6477 49.4899 17.7966C49.8304 16.9333 50.3107 16.1916 50.9308 15.5715C51.5509 14.9392 52.2744 14.4528 53.1012 14.1124C53.9402 13.7598 54.8521 13.5835 55.837 13.5835C56.8219 13.5835 57.7034 13.7476 58.4816 14.0759C59.2719 14.4042 59.9407 14.8419 60.4879 15.3891C61.035 15.9363 61.4241 16.5442 61.6551 17.213L59.1564 18.4167C58.9254 17.7601 58.5181 17.219 57.9344 16.7935C57.363 16.3557 56.6638 16.1369 55.837 16.1369C55.0345 16.1369 54.3293 16.3253 53.7213 16.7023C53.1134 17.0792 52.6392 17.6021 52.2987 18.2708C51.9704 18.9274 51.8063 19.6995 51.8063 20.5871C51.8063 21.4747 51.9704 22.2529 52.2987 22.9217C52.6392 23.5904 53.1134 24.1133 53.7213 24.4902C54.3293 24.8671 55.0345 25.0556 55.837 25.0556C56.6638 25.0556 57.363 24.8428 57.9344 24.4172C58.5181 23.9795 58.9254 23.4323 59.1564 22.7758L61.6551 23.9795C61.4241 24.6483 61.035 25.2562 60.4879 25.8034C59.9407 26.3505 59.2719 26.7883 58.4816 27.1166C57.7034 27.4449 56.8219 27.609 55.837 27.609ZM68.0331 27.609C67.0482 27.609 66.1484 27.3841 65.3338 26.9342C64.5313 26.4843 63.8869 25.8702 63.4005 25.0921C62.9263 24.3017 62.6892 23.408 62.6892 22.411C62.6892 21.4018 62.9263 20.5081 63.4005 19.7299C63.8869 18.9517 64.5313 18.3377 65.3338 17.8878C66.1484 17.4379 67.0482 17.213 68.0331 17.213C69.018 17.213 69.9117 17.4379 70.7142 17.8878C71.5167 18.3377 72.155 18.9517 72.6293 19.7299C73.1156 20.5081 73.3588 21.4018 73.3588 22.411C73.3588 23.408 73.1156 24.3017 72.6293 25.0921C72.155 25.8702 71.5167 26.4843 70.7142 26.9342C69.9117 27.3841 69.018 27.609 68.0331 27.609ZM68.0331 25.1468C68.5316 25.1468 68.9633 25.0313 69.3281 24.8002C69.705 24.5692 69.9968 24.247 70.2035 23.8336C70.4224 23.4202 70.5318 22.946 70.5318 22.411C70.5318 21.876 70.4224 21.4079 70.2035 21.0066C69.9968 20.5932 69.705 20.271 69.3281 20.04C68.9633 19.7968 68.5316 19.6752 68.0331 19.6752C67.5346 19.6752 67.0969 19.7968 66.7199 20.04C66.343 20.271 66.0451 20.5932 65.8262 21.0066C65.6195 21.4079 65.5162 21.876 65.5162 22.411C65.5162 22.946 65.6195 23.4202 65.8262 23.8336C66.0451 24.247 66.343 24.5692 66.7199 24.8002C67.0969 25.0313 67.5346 25.1468 68.0331 25.1468ZM74.9705 27.3901V17.4318H77.7063V27.3901H74.9705ZM74.9705 16.5381V13.8023H77.7063V16.5381H74.9705ZM79.7083 27.3901V17.4318H82.2617V19.4016L82.1158 18.9639C82.3468 18.3681 82.7177 17.9303 83.2283 17.6507C83.7512 17.3589 84.3591 17.213 85.0522 17.213C85.8061 17.213 86.4627 17.371 87.022 17.6872C87.5935 18.0033 88.0373 18.4471 88.3534 19.0186C88.6695 19.5779 88.8276 20.2345 88.8276 20.9884V27.3901H86.0918V21.572C86.0918 21.1829 86.0128 20.8485 85.8547 20.5689C85.7088 20.2892 85.496 20.0704 85.2164 19.9123C84.9489 19.7542 84.6327 19.6752 84.2679 19.6752C83.9153 19.6752 83.5992 19.7542 83.3195 19.9123C83.0399 20.0704 82.821 20.2892 82.6629 20.5689C82.517 20.8485 82.4441 21.1829 82.4441 21.572V27.3901H79.7083ZM97.3566 27.609C96.3839 27.609 95.478 27.4327 94.639 27.0801C93.8001 26.7275 93.0644 26.235 92.4322 25.6027C91.7999 24.9705 91.3074 24.2288 90.9548 23.3776C90.6022 22.5265 90.4259 21.5963 90.4259 20.5871C90.4259 19.5779 90.5961 18.6477 90.9366 17.7966C91.2771 16.9333 91.7573 16.1916 92.3775 15.5715C92.9976 14.9392 93.721 14.4528 94.5479 14.1124C95.3868 13.7598 96.2988 13.5835 97.2837 13.5835C98.2685 13.5835 99.1501 13.7476 99.9283 14.0759C100.719 14.4042 101.387 14.8419 101.935 15.3891C102.482 15.9363 102.871 16.5442 103.102 17.213L100.603 18.4167C100.372 17.7601 99.9647 17.219 99.3811 16.7935C98.8096 16.3557 98.1105 16.1369 97.2837 16.1369C96.4812 16.1369 95.7759 16.3253 95.168 16.7023C94.56 17.0792 94.0858 17.6021 93.7454 18.2708C93.4171 18.9274 93.2529 19.6995 93.2529 20.5871C93.2529 21.4747 93.4292 22.2529 93.7818 22.9217C94.1344 23.5904 94.6147 24.1133 95.2227 24.4902C95.8428 24.8671 96.5541 25.0556 97.3566 25.0556C97.9767 25.0556 98.5543 24.9401 99.0893 24.7091C99.6364 24.4659 100.074 24.1193 100.402 23.6694C100.743 23.2196 100.913 22.6785 100.913 22.0462V20.9154L102.208 22.0097H97.2837V19.6387H103.74V21.0796C103.74 22.186 103.558 23.1527 103.193 23.9795C102.828 24.7942 102.336 25.4751 101.716 26.0222C101.108 26.5572 100.421 26.9585 99.6547 27.226C98.9008 27.4813 98.1348 27.609 97.3566 27.609ZM110.082 27.609C109.024 27.609 108.106 27.378 107.328 26.9159C106.55 26.4417 105.948 25.8095 105.522 25.0191C105.097 24.2288 104.884 23.3533 104.884 22.3927C104.884 21.3957 105.103 20.5081 105.54 19.7299C105.99 18.9517 106.592 18.3377 107.346 17.8878C108.1 17.4379 108.951 17.213 109.9 17.213C110.69 17.213 111.389 17.3406 111.997 17.596C112.605 17.8392 113.116 18.1857 113.529 18.6356C113.955 19.0855 114.277 19.6083 114.496 20.2041C114.715 20.7877 114.824 21.4261 114.824 22.1192C114.824 22.3137 114.812 22.5083 114.787 22.7028C114.775 22.8852 114.745 23.0433 114.696 23.177H107.237V21.1708H113.146L111.851 22.1192C111.973 21.5963 111.967 21.1343 111.833 20.733C111.699 20.3196 111.462 19.9974 111.122 19.7664C110.793 19.5232 110.386 19.4016 109.9 19.4016C109.425 19.4016 109.018 19.5171 108.678 19.7481C108.337 19.9792 108.082 20.3196 107.912 20.7695C107.741 21.2194 107.674 21.7665 107.711 22.411C107.662 22.9703 107.729 23.4627 107.912 23.8883C108.094 24.3139 108.374 24.6483 108.75 24.8914C109.127 25.1225 109.583 25.238 110.118 25.238C110.605 25.238 111.018 25.1407 111.359 24.9462C111.711 24.7516 111.985 24.4841 112.179 24.1437L114.368 25.1833C114.173 25.6696 113.863 26.0952 113.438 26.46C113.024 26.8247 112.532 27.1105 111.961 27.3172C111.389 27.5117 110.763 27.609 110.082 27.609ZM121.323 27.609C120.326 27.609 119.426 27.3841 118.624 26.9342C117.833 26.4721 117.201 25.8459 116.727 25.0556C116.265 24.2652 116.034 23.3776 116.034 22.3927C116.034 21.4079 116.265 20.5263 116.727 19.7481C117.189 18.9578 117.821 18.3377 118.624 17.8878C119.426 17.4379 120.326 17.213 121.323 17.213C122.065 17.213 122.752 17.3406 123.384 17.596C124.016 17.8513 124.557 18.21 125.007 18.6721C125.457 19.1219 125.779 19.6569 125.974 20.2771L123.603 21.2984C123.433 20.7999 123.141 20.4047 122.727 20.1129C122.326 19.8211 121.858 19.6752 121.323 19.6752C120.849 19.6752 120.423 19.7907 120.046 20.0217C119.681 20.2527 119.39 20.575 119.171 20.9884C118.964 21.4018 118.861 21.876 118.861 22.411C118.861 22.946 118.964 23.4202 119.171 23.8336C119.39 24.247 119.681 24.5692 120.046 24.8002C120.423 25.0313 120.849 25.1468 121.323 25.1468C121.87 25.1468 122.344 25.0009 122.746 24.7091C123.147 24.4172 123.433 24.0221 123.603 23.5235L125.974 24.5631C125.791 25.1468 125.475 25.6696 125.025 26.1317C124.575 26.5937 124.034 26.9585 123.402 27.226C122.77 27.4813 122.077 27.609 121.323 27.609ZM127.585 27.3901V13.5835H130.321V22.4292L129.299 22.1009L133.695 17.4318H137.069L133.458 21.4443L137.051 27.3901H133.95L130.941 22.338L132.527 21.9368L129.482 25.2562L130.321 23.6694V27.3901H127.585ZM143.036 27.609C142.051 27.609 141.151 27.3841 140.337 26.9342C139.534 26.4843 138.89 25.8702 138.403 25.0921C137.929 24.3017 137.692 23.408 137.692 22.411C137.692 21.4018 137.929 20.5081 138.403 19.7299C138.89 18.9517 139.534 18.3377 140.337 17.8878C141.151 17.4379 142.051 17.213 143.036 17.213C144.021 17.213 144.915 17.4379 145.717 17.8878C146.52 18.3377 147.158 18.9517 147.632 19.7299C148.119 20.5081 148.362 21.4018 148.362 22.411C148.362 23.408 148.119 24.3017 147.632 25.0921C147.158 25.8702 146.52 26.4843 145.717 26.9342C144.915 27.3841 144.021 27.609 143.036 27.609ZM143.036 25.1468C143.535 25.1468 143.966 25.0313 144.331 24.8002C144.708 24.5692 145 24.247 145.206 23.8336C145.425 23.4202 145.535 22.946 145.535 22.411C145.535 21.876 145.425 21.4079 145.206 21.0066C145 20.5932 144.708 20.271 144.331 20.04C143.966 19.7968 143.535 19.6752 143.036 19.6752C142.538 19.6752 142.1 19.7968 141.723 20.04C141.346 20.271 141.048 20.5932 140.829 21.0066C140.622 21.4079 140.519 21.876 140.519 22.411C140.519 22.946 140.622 23.4202 140.829 23.8336C141.048 24.247 141.346 24.5692 141.723 24.8002C142.1 25.0313 142.538 25.1468 143.036 25.1468Z" fill="#BEBEBE"/>
</svg>
