<svg width="205" height="44" viewBox="0 0 205 44" fill="none" xmlns="http://www.w3.org/2000/svg">
<mask id="mask0_56_220" style="mask-type:luminance" maskUnits="userSpaceOnUse" x="0" y="0" width="205" height="44">
<path d="M204.608 0.95459H0.0591431V43.3208H204.608V0.95459Z" fill="white"/>
</mask>
<g mask="url(#mask0_56_220)">
<path d="M77.3057 31.7712V43.0057H79.1653V38.0248H84.447V43.0057H86.3066V31.7712H84.447V36.4222H79.1653V31.7712H77.3057ZM93.1233 36.4065V33.3582H99.3426V31.7712H91.2638V43.0057H99.4989V41.4187H93.1233V38.0091H98.5769V36.4065H93.1233ZM104.062 43.0057H108.453C111.547 43.0057 113.376 41.0102 113.376 37.3964C113.376 33.7825 111.485 31.7712 108.406 31.7712H104.062V43.0057ZM105.922 33.3582H108.313C110.813 33.3582 111.516 35.2437 111.516 37.3964C111.516 39.549 110.813 41.4187 108.313 41.4187H105.922V33.3582ZM125.695 35.2752H127.555C127.211 33.1225 125.649 31.5356 122.742 31.5356C119.523 31.5356 117.492 34.0025 117.492 37.3806C117.492 40.7745 119.304 43.2413 122.539 43.2413C124.227 43.2413 125.274 42.5972 126.024 41.4658H126.055L126.461 43.0057H127.743V37.1135H122.695V38.622H125.852C125.836 40.4131 124.43 41.6387 122.664 41.6387C120.117 41.6387 119.351 39.5018 119.351 37.3806C119.351 35.2752 120.336 33.1383 122.726 33.1383C124.383 33.1383 125.414 33.9396 125.695 35.2752ZM134.387 36.4065V33.3582H140.607V31.7712H132.528V43.0057H140.763V41.4187H134.387V38.0091H139.841V36.4065H134.387ZM153.208 36.6265V33.3582H159.162V31.7712H151.349V43.0057H153.208V38.2291H158.038V36.6265H153.208ZM172.209 39.1719V31.7712H170.365V39.1719C170.365 40.8688 169.522 41.6387 167.802 41.6387C166.099 41.6387 165.256 40.8688 165.256 39.1719V31.7712H163.395V39.1719C163.395 41.623 164.692 43.2413 167.802 43.2413C170.913 43.2413 172.209 41.623 172.209 39.1719ZM177.022 43.0057H178.881V34.5995H178.912L183.96 43.0057H186.023V31.7712H184.164V40.2088H184.132L179.1 31.7712H177.022V43.0057ZM190.98 43.0057H195.372C198.465 43.0057 200.294 41.0102 200.294 37.3964C200.294 33.7825 198.402 31.7712 195.325 31.7712H190.98V43.0057ZM192.839 33.3582H195.231C197.73 33.3582 198.434 35.2437 198.434 37.3964C198.434 39.549 197.73 41.4187 195.231 41.4187H192.839V33.3582Z" fill="white"/>
<path d="M95.134 10.2892C95.7444 10.2892 96.2966 10.4946 96.7615 10.9346C97.1975 11.4039 97.4009 11.932 97.4009 12.5773C97.4009 15.7456 96.2966 18.4151 94.0588 20.6444C91.8501 22.874 89.2055 24.018 86.0668 24.018C82.9283 24.018 80.2836 22.9033 78.075 20.6444C75.8663 18.4151 74.7329 15.7456 74.7329 12.5773C74.7329 9.40916 75.8372 6.73969 78.075 4.51022C80.2836 2.28078 82.9283 1.13672 86.0668 1.13672C88.8277 1.13672 91.2398 2.01677 93.3322 3.80619C93.7973 4.21688 94.0878 4.74491 94.146 5.36094C94.1751 6.00631 94.0297 6.53434 93.6229 7.03303C93.2159 7.50239 92.6928 7.76641 92.0826 7.82508C91.4432 7.88375 90.9202 7.70774 90.4261 7.29705C89.1765 6.241 87.7234 5.68362 86.0668 5.68362C84.1779 5.68362 82.6086 6.35833 81.2718 7.70774C79.9349 9.02781 79.2664 10.6412 79.2664 12.548C79.2664 14.4548 79.9349 16.039 81.2718 17.3884C82.5795 18.7377 84.1779 19.4124 86.0668 19.4124C87.52 19.4124 88.8568 19.0017 90.0193 18.151C91.1817 17.3004 91.9955 16.2149 92.4894 14.8655H88.014C87.3747 14.8655 86.8516 14.6308 86.3865 14.1908C85.9507 13.7507 85.7473 13.2227 85.7473 12.5773C85.7473 11.932 85.9507 11.4039 86.3865 10.9346C86.8516 10.4946 87.3747 10.2892 88.014 10.2892H95.134Z" fill="white"/>
<path d="M111.959 23.9877C108.82 23.9877 106.176 22.873 103.967 20.6142C101.758 18.3848 100.625 15.7153 100.625 12.5471C100.625 9.3789 101.729 6.70943 103.967 4.47997C106.176 2.25051 108.82 1.10645 111.959 1.10645C115.097 1.10645 117.742 2.22117 119.951 4.47997C122.159 6.70943 123.293 9.3789 123.293 12.5471C123.293 15.7153 122.188 18.3848 119.951 20.6142C117.742 22.873 115.097 23.9877 111.959 23.9877ZM111.959 5.71204C110.07 5.71204 108.501 6.38675 107.164 7.73615C105.827 9.05622 105.158 10.6696 105.158 12.5764C105.158 14.4832 105.827 16.0674 107.164 17.4166C108.471 18.7661 110.07 19.4408 111.959 19.4408C113.848 19.4408 115.417 18.7661 116.754 17.4166C118.091 16.0966 118.759 14.4832 118.759 12.5764C118.759 10.6696 118.091 9.08556 116.754 7.73615C115.417 6.38675 113.848 5.71204 111.959 5.71204Z" fill="white"/>
<path d="M126.667 5.71297C126.027 5.71297 125.504 5.50762 125.039 5.0676C124.603 4.59823 124.4 4.0702 124.4 3.42483C124.4 2.77946 124.603 2.25145 125.039 1.78209C125.504 1.34206 126.027 1.13672 126.667 1.13672H142.186C142.825 1.13672 143.348 1.34206 143.813 1.78209C144.249 2.25145 144.452 2.77946 144.452 3.42483C144.452 4.0702 144.249 4.59823 143.813 5.0676C143.348 5.50762 142.825 5.71297 142.186 5.71297H136.693V21.7299C136.693 22.3753 136.489 22.9033 136.053 23.3433C135.589 23.8127 135.065 24.018 134.426 24.018C133.787 24.018 133.264 23.7834 132.828 23.3433C132.363 22.9033 132.159 22.3753 132.159 21.7299V5.71297H126.667Z" fill="white"/>
<path d="M161.598 1.13672C163.487 1.13672 165.055 1.81142 166.393 3.16083C167.73 4.4809 168.397 6.09432 168.397 8.00108C168.397 9.40917 167.99 10.6999 167.206 11.8733C168.863 13.252 169.706 14.9828 169.706 17.1243C169.706 19.0311 169.037 20.6152 167.7 21.9645C166.393 23.3139 164.795 23.9886 162.906 23.9886H151.252C150.613 23.9886 150.089 23.7541 149.654 23.3139C149.188 22.874 148.984 22.346 148.984 21.7006V3.42483C148.984 2.77946 149.218 2.25145 149.654 1.78209C150.089 1.34206 150.613 1.13672 151.252 1.13672H161.598ZM153.518 10.2892H161.598C162.237 10.2892 162.761 10.0545 163.196 9.61451C163.66 9.17448 163.864 8.64645 163.864 8.00108C163.864 7.35571 163.632 6.8277 163.196 6.38766C162.761 5.91831 162.237 5.71296 161.598 5.71296H153.518V10.2892ZM162.906 19.4417C163.545 19.4417 164.067 19.2071 164.504 18.767C164.968 18.327 165.172 17.799 165.172 17.1537C165.172 16.5083 164.94 15.9803 164.504 15.5402C164.067 15.0708 163.545 14.8655 162.906 14.8655H153.518V19.4417H162.906Z" fill="white"/>
<path d="M178.427 23.9886C177.786 23.9886 177.264 23.7834 176.799 23.3433C176.363 22.874 176.159 22.346 176.159 21.7006V3.42483C176.159 2.77946 176.363 2.25145 176.799 1.78209C177.264 1.34206 177.786 1.13672 178.427 1.13672C179.036 1.13672 179.589 1.34206 180.054 1.78209C180.49 2.25145 180.693 2.77946 180.693 3.42483V21.7299C180.693 22.3753 180.49 22.9033 180.054 23.3726C179.589 23.7834 179.036 23.9886 178.427 23.9886Z" fill="white"/>
<path d="M186.823 5.71297C186.183 5.71297 185.661 5.50762 185.196 5.0676C184.76 4.59823 184.556 4.0702 184.556 3.42483C184.556 2.77946 184.76 2.25145 185.196 1.78209C185.661 1.34206 186.183 1.13672 186.823 1.13672H202.341C202.981 1.13672 203.504 1.34206 203.969 1.78209C204.405 2.25145 204.608 2.77946 204.608 3.42483C204.608 4.0702 204.405 4.59823 203.969 5.0676C203.504 5.50762 202.981 5.71297 202.341 5.71297H196.849V21.7299C196.849 22.3753 196.646 22.9033 196.21 23.3433C195.745 23.8127 195.222 24.018 194.582 24.018C193.943 24.018 193.42 23.7834 192.983 23.3433C192.519 22.9033 192.316 22.3753 192.316 21.7299V5.71297H186.823Z" fill="white"/>
<path d="M2.88658 23.7018C4.44814 23.7018 5.71403 22.4239 5.71403 20.8478C5.71403 19.2715 4.44814 17.9937 2.88658 17.9937C1.32503 17.9937 0.0591431 19.2715 0.0591431 20.8478C0.0591431 22.4239 1.32503 23.7018 2.88658 23.7018Z" fill="white"/>
<path d="M22.5083 35.2882C24.0698 35.2882 25.3357 34.0104 25.3357 32.4341C25.3357 30.8579 24.0698 29.5801 22.5083 29.5801C20.9467 29.5801 19.6808 30.8579 19.6808 32.4341C19.6808 34.0104 20.9467 35.2882 22.5083 35.2882Z" fill="white"/>
<path d="M63.1422 18.7067C62.4353 18.0504 61.8133 17.9648 61.2479 18.0219C61.1347 18.0219 61.0499 17.9932 60.9369 17.9932H30.8811C32.1817 11.5146 37.8931 6.63415 44.679 6.63415C48.4113 6.63415 51.9455 8.08972 54.6034 10.744C55.6778 11.8285 57.4308 11.9141 58.5335 10.8867C59.721 9.7736 59.7493 7.91848 58.6184 6.77685C54.8861 3.00951 49.938 0.95459 44.679 0.95459C40.0138 0.95459 35.6878 2.60994 32.3232 5.37837C30.7681 6.57707 29.6088 6.63415 27.1489 6.63415H22.4271C20.8436 6.63415 19.5714 7.94702 19.5997 9.57382C19.6279 11.115 20.9851 12.3137 22.5119 12.3137H30.0047L27.1489 12.8274C26.8096 12.8845 26.4986 13.1128 26.3855 13.4553C25.9897 14.4828 25.7068 15.5674 25.4241 16.6518C25.1696 17.5936 23.756 18.0219 21.7202 18.0219H11.4565C9.90144 18.0219 8.57254 19.2206 8.516 20.7903C8.45944 22.3885 9.76006 23.7299 11.3434 23.7299H29.0716L26.1594 24.2151C25.6503 24.3007 25.3393 24.7859 25.4525 25.2997C27.46 34.1472 35.2919 40.7972 44.679 40.7972C55.2254 40.7972 63.8773 32.3777 64.3863 21.8463C64.4146 20.6476 63.9905 19.506 63.1422 18.7067ZM44.679 35.0605C37.8649 35.0605 32.1817 30.1801 30.8811 23.7014H58.477C57.1481 30.1801 51.4648 35.0605 44.679 35.0605Z" fill="white"/>
</g>
</svg>
