<svg width="284" height="25" viewBox="0 0 284 25" fill="none" xmlns="http://www.w3.org/2000/svg">
<path d="M6.2 23.8214H0L5 0.421387H11.2L6.2 23.8214Z" fill="white"/>
<path d="M18.8004 7.32148L18.1004 10.3215H18.4004C19.7004 7.72148 21.4004 7.02148 24.0004 7.02148C27.6004 7.02148 28.8004 8.72148 28.1004 12.3215L25.7004 23.8215H20.2004L22.4004 13.7215C22.7004 12.2215 22.4004 11.3215 20.7004 11.3215C18.3004 11.3215 17.5004 12.7215 17.1004 14.7215L15.2004 23.8215H9.90039L13.3004 7.42148H18.8004V7.32148Z" fill="white"/>
<path d="M40.1002 23.8218H31.8002L30.7002 7.32178H36.3002L36.6002 20.2218H36.7002L42.2002 7.32178H47.8002L40.1002 23.8218Z" fill="white"/>
<path d="M61.9998 18.2216C61.4998 20.6216 60.3998 22.0216 58.7998 22.9216C57.1998 23.6216 55.1998 23.9216 52.7998 23.9216C46.3998 23.9216 45.2998 21.6216 46.4998 15.5216C47.7998 9.22158 49.7998 7.12158 56.2998 7.12158C62.3998 7.12158 63.7998 8.82158 62.3998 15.5216L62.2998 16.4216H51.7998C51.2998 19.2216 51.4998 20.1216 53.6998 20.1216C55.3998 20.1216 56.3998 20.0216 56.8998 18.2216H61.9998ZM57.6998 13.5216C58.1998 11.1216 57.3998 10.9216 55.4998 10.9216C53.5998 10.9216 52.8998 11.3216 52.2998 13.5216H57.6998Z" fill="white"/>
<path d="M75.5 11.9217C75.6 10.5217 74.5 10.5217 73.6 10.5217C70.8 10.5217 70.8 10.8217 70.4 11.8217C70.3 12.7217 70.1 13.2217 73 13.2217C78.6 13.3217 81 13.6217 80 18.2217C79 23.0217 75.2 23.8217 70.8 23.8217C66.4 23.8217 62.8 23.9217 63.9 18.5217H69.3C68.9 20.4217 70.3 20.4217 71.6 20.4217C74 20.4217 74.4 20.3217 74.8 19.0217C75.1 17.5217 74.3 17.5217 72.4 17.5217C65.5 17.5217 64.7 16.0217 65.4 12.6217C66.5 7.32168 70 7.22168 74.6 7.22168C77.6 7.22168 81.9 7.22168 81 11.2217L80.9 11.9217H75.5Z" fill="white"/>
<path d="M96.3996 11.2217H90.2996L88.6996 18.5217C88.5996 19.5217 88.5996 19.9217 89.5996 19.9217C90.9996 19.9217 91.1996 18.9217 91.4996 17.8217L91.7996 16.9217H96.0996L95.7996 18.3217C94.7996 22.7217 92.9996 23.8217 88.6996 23.8217C85.2996 23.8217 82.5996 23.4217 83.3996 19.2217L85.0996 11.1217H83.0996L83.9996 7.12168H85.9996L86.6996 3.72168H92.1996L91.4996 7.02168H97.5996L96.3996 11.2217Z" fill="white"/>
<path d="M114.2 15.5215C112.8 22.2215 111 23.9215 104.2 23.9215C97.4997 23.9215 96.2997 22.0215 97.7997 15.5215C99.1997 8.82151 101 7.12151 107.8 7.12151C114.6 7.02151 115.6 8.62151 114.2 15.5215ZM103.2 15.5215C102.5 19.1215 102.7 19.8215 105.2 19.8215C107.6 19.8215 108 19.1215 108.9 15.5215C109.6 11.9215 109.6 11.2215 107 11.2215C104.5 11.2215 103.9 11.9215 103.2 15.5215Z" fill="white"/>
<path d="M126 13.6217C126.3 12.5217 126.5 11.2217 125.1 11.2217C123.5 11.2217 122.8 12.5217 122.5 13.8217L120.5 23.8217H115.1L118.5 7.42168H123.6L123.1 9.82168H123.4C124.5 7.92168 126.1 7.22168 128.1 7.22168C131.8 7.22168 131.5 10.2217 130.8 13.2217L130.5 14.5217H125.6L126 13.6217Z" fill="white"/>
<path d="M142.8 11.9217C142.9 10.5217 141.8 10.5217 140.9 10.5217C138.1 10.5217 138.1 10.8217 137.7 11.8217C137.6 12.7217 137.4 13.2217 140.3 13.2217C145.9 13.3217 148.3 13.6217 147.3 18.2217C146.3 23.0217 142.4 23.8217 138.1 23.8217C133.8 23.8217 130.1 23.9217 131.2 18.5217H136.6C136.2 20.4217 137.6 20.4217 138.9 20.4217C141.3 20.4217 141.7 20.3217 142.1 19.0217C142.4 17.5217 141.6 17.5217 139.7 17.5217C132.8 17.5217 132 16.0217 132.7 12.6217C133.8 7.32168 137.3 7.22168 141.9 7.22168C144.9 7.22168 149.2 7.22168 148.3 11.2217L148.2 11.9217H142.8Z" fill="white"/>
<path d="M164.2 0.121582C170.1 0.121582 171.3 2.12158 170.2 8.02158L168.5 16.3216C167.4 21.8216 164.9 23.8216 159.2 23.8216H155.9C150.3 23.8216 148.8 21.8216 149.9 16.3216L151.6 8.02158C152.9 2.12158 155 0.121582 160.9 0.121582H164.2ZM160.5 2.52158C156.5 2.52158 155.4 3.52158 154.4 8.12158L152.7 16.4216C151.7 21.1216 153.1 21.5216 156.5 21.7216H159.7C163.1 21.7216 164.8 21.2216 165.8 16.4216L167.5 8.12158C168.5 3.52158 167.6 2.52158 163.7 2.52158H160.5Z" fill="white"/>
<path d="M175.1 0.321777H177.5L175.6 9.52178C176.9 7.42178 179.4 7.22178 181.3 7.22178C187 7.22178 187 10.5218 185.9 15.6218C184.8 20.9218 183.3 24.0218 177.8 24.0218C175.5 24.0218 173.5 23.6218 172.9 21.8218H172.8L172.4 23.8218H170L175.1 0.321777ZM180.4 9.02178C176.1 9.02178 175.4 10.7218 174.4 15.4218C173.3 20.7218 174 21.8218 177.7 21.8218C182.1 21.8218 182.6 19.9218 183.6 15.4218C184.6 10.2218 184.4 9.02178 180.4 9.02178Z" fill="white"/>
<path d="M203.6 11.6215H201L201.2 11.0215C201.5 9.32148 200.3 9.32148 197.8 9.32148C194.6 9.32148 193.2 9.32148 192.8 11.3215C192.3 14.3215 193.1 14.0215 195.5 14.1215C199.6 14.4215 203.6 13.7215 202.5 19.1215C201.5 23.7215 198.4 23.9215 194.6 23.9215C191 23.9215 187.3 23.8215 188.2 20.1215L188.5 18.6215H191.1L190.8 19.9215C190.5 21.4215 191.3 21.8215 195.1 21.8215C196.8 21.8215 199.2 22.2215 200 19.2215C200.8 16.2215 199.3 16.8215 196.3 16.5215C192.7 16.2215 189.2 16.6215 190.2 11.9215C191.2 7.22148 193.9 7.02148 198.3 7.02148C201.1 7.02148 204.7 7.12148 203.9 10.8215L203.6 11.6215Z" fill="white"/>
<path d="M219.8 18.7215L219.7 19.2215C218.8 23.5215 215.4 23.8215 211.7 23.8215C205.3 23.8215 204.8 21.6215 206.1 15.4215C207.5 8.52148 209.4 7.02148 215.3 7.02148C220.6 7.02148 222 8.32148 220.7 14.3215L220.4 16.0215H208.5C207.4 21.1215 207.6 21.9215 212.1 21.9215C215.5 21.9215 216.7 21.6215 217.1 19.3215L217.2 18.8215L219.8 18.7215ZM218.2 14.0215C219.1 9.32148 218.6 9.02148 214.8 9.02148C210.4 9.02148 209.9 10.1215 208.9 14.0215H218.2Z" fill="white"/>
<path d="M228.1 7.32148L227.6 9.32148C228.9 7.42148 230.9 7.02148 232.7 7.02148C235.9 7.02148 237 8.52148 236.3 11.6215L236 12.7215H233.7L234 11.6215C234.4 9.62148 233.9 8.92148 231.9 8.92148C228.9 8.92148 227.5 10.3215 227 13.3215L224.9 23.5215H222.5L225.9 7.12148H228.2L228.1 7.32148Z" fill="white"/>
<path d="M243.9 23.8214H240.5L238.5 7.42139H240.9L242.5 21.9214L250.2 7.42139H252.9L243.9 23.8214Z" fill="white"/>
<path d="M266.3 18.7215L266.2 19.2215C265.3 23.5215 261.9 23.8215 258.2 23.8215C251.8 23.8215 251.3 21.6215 252.6 15.4215C254 8.52148 255.9 7.02148 261.8 7.02148C267.1 7.02148 268.5 8.32148 267.3 14.3215L267 16.0215H255.1C254 21.1215 254.2 21.9215 258.7 21.9215C262.1 21.9215 263.3 21.6215 263.7 19.3215L263.8 18.8215L266.3 18.7215ZM264.8 14.0215C265.7 9.32148 265.2 9.02148 261.4 9.02148C257 9.02148 256.5 10.1215 255.5 14.0215H264.8Z" fill="white"/>
<path d="M274.6 7.32148L274.1 9.32148C275.4 7.42148 277.4 7.02148 279.2 7.02148C282.4 7.02148 283.5 8.52148 282.8 11.6215L282.5 12.7215H280.2L280.5 11.6215C280.9 9.62148 280.4 8.92148 278.4 8.92148C275.4 8.92148 274 10.3215 273.5 13.3215L271.4 23.5215H268.8L272.2 7.12148H274.6V7.32148Z" fill="white"/>
</svg>
