<svg width="274" height="21" viewBox="0 0 274 21" fill="none" xmlns="http://www.w3.org/2000/svg">
<path fill-rule="evenodd" clip-rule="evenodd" d="M116.9 3.0001C116 2.1001 115 1.4001 113.8 0.900098C112.6 0.400098 111.2 0.100098 109.8 0.100098C108.3 0.100098 107 0.400098 105.8 0.900098C104.6 1.4001 103.5 2.1001 102.6 3.0001C101.7 3.9001 101 5.0001 100.5 6.2001C99.9998 7.4001 99.7998 8.7001 99.7998 10.0001C99.7998 11.3001 99.9998 12.6001 100.5 13.8001C101 15.0001 101.6 16.0001 102.5 16.8001L105.3 11.7001L108.1 14.5001L111.2 7.1001L109.9 6.5001L111.7 5.2001L113.5 3.9001L113.8 6.1001L114.1 8.3001L112.8 7.7001L108.8 17.2001L105.8 14.3001L103.9 17.9001C104.5 18.4001 105.2 18.7001 105.9 19.0001C107.1 19.5001 108.5 19.8001 109.9 19.8001C111.4 19.8001 112.7 19.5001 113.9 19.0001C116.3 18.0001 118.2 16.1001 119.1 13.7001C119.6 12.5001 119.8 11.2001 119.8 9.9001C119.8 8.6001 119.6 7.3001 119.1 6.1001C118.4 4.9001 117.7 3.9001 116.9 3.0001Z" fill="#4E4E4E"/>
<path d="M0 19.7H13.6V16.6H3.4V0.3H0V19.7ZM18.7 0.3V19.6H22.1V0.3H18.7ZM36.7 15.2L30.8 0.3H27L35 19.8H38L46 0.3H42.3L36.7 15.2ZM65.2 0.3H50.9V19.6H65.4V16.6H54.3V11.4H64V8.4H54.3V3.4H65.2V0.3ZM149 13.7L138.6 0.3H135.5V19.6H138.8V5.9L149.5 19.7H152.3V0.3H149V13.7ZM95.9 16.6L93.7 14.4C92.9 15.2 92 15.8 91.2 16.2C90.4 16.7 89.3 16.9 88.2 16.9C87.3 16.9 86.4 16.7 85.6 16.4C84.8 16 84.1 15.5 83.6 14.9C83 14.3 82.6 13.5 82.3 12.7C82 11.9 81.8 11 81.8 10C81.8 9 82 8.1 82.3 7.3C82.6 6.5 83.1 5.7 83.6 5.1C84.2 4.5 84.8 4 85.6 3.6C86.4 3.2 87.2 3.1 88.2 3.1C89.3 3.1 90.3 3.3 91.2 3.8C92.1 4.2 92.9 4.8 93.7 5.5L95.8 3C95.3 2.6 94.9 2.2 94.3 1.8C93.8 1.4 93.2 1.1 92.6 0.8C92 0.5 91.3 0.3 90.6 0.2C89.9 0.1 89.1 0 88.2 0C86.7 0 85.4 0.3 84.2 0.8C83 1.3 81.9 2 81 2.9C80.1 3.8 79.4 4.9 78.9 6.1C78.4 7.3 78.2 8.6 78.2 10C78.2 11.4 78.4 12.7 78.9 13.9C79.4 15.1 80.1 16.2 81 17.1C81.9 18 82.9 18.7 84.1 19.2C85.3 19.7 86.6 20 88 20C88.9 20 89.7 19.9 90.5 19.8C91.2 19.6 91.9 19.4 92.6 19.1C93.2 18.8 93.8 18.4 94.4 18C94.9 17.6 95.4 17.1 95.9 16.6ZM125.5 0.3V19.6H128.9V0.3H125.5ZM173.8 14.7L169.2 0.4H165.5L172.2 19.9H175.1L180 5.9L184.8 19.8H187.7L194.4 0.3H190.8L186.2 14.6L181.4 0.2H178.5L173.8 14.7ZM206.8 0.2H203.7L195.2 19.7H198.7L200.7 15H209.8L211.8 19.7H215.4L206.8 0.2ZM208.5 12H201.8L205.1 4.3L208.5 12ZM225.8 3.5H231.9V0.3H216.2V3.4H222.3V19.6H225.7V3.5H225.8ZM252.7 16.6L250.5 14.4C249.7 15.2 248.8 15.8 248 16.2C247.2 16.7 246.1 16.9 245 16.9C244.1 16.9 243.2 16.7 242.4 16.4C241.6 16 240.9 15.5 240.4 14.9C239.8 14.3 239.4 13.5 239.1 12.7C238.8 11.9 238.6 11 238.6 10C238.6 9 238.8 8.1 239.1 7.3C239.4 6.5 239.9 5.7 240.4 5.1C241 4.5 241.6 4 242.4 3.6C243.2 3.2 244 3.1 245 3.1C246.1 3.1 247.1 3.3 248 3.8C248.9 4.2 249.7 4.8 250.5 5.5L252.7 3C252.2 2.6 251.8 2.2 251.2 1.8C250.7 1.4 250.1 1.1 249.5 0.8C248.9 0.5 248.2 0.3 247.5 0.2C246.7 0.1 245.9 0 245 0C243.5 0 242.2 0.3 241 0.8C239.8 1.3 238.7 2 237.9 3C237 3.9 236.3 5 235.8 6.2C235.3 7.4 235.1 8.7 235.1 10.1C235.1 11.5 235.3 12.8 235.8 14C236.3 15.2 237 16.3 237.9 17.2C238.8 18.1 239.8 18.8 241 19.3C242.2 19.8 243.5 20.1 244.9 20.1C245.8 20.1 246.6 20 247.4 19.9C248.1 19.7 248.8 19.5 249.5 19.2C250.1 18.9 250.7 18.5 251.3 18.1C251.7 17.6 252.2 17.1 252.7 16.6ZM270.3 11.5V19.6H273.7V0.3H270.3V8.3H261.1V0.3H257.7V19.6H261.1V11.5H270.3Z" fill="#BEBEBE"/>
</svg>
