<svg width="136" height="32" viewBox="0 0 136 32" fill="none" xmlns="http://www.w3.org/2000/svg">
<g clip-path="url(#clip0_411_127)">
<path d="M0 0V32L8.75787 23.2407V8.75934L0 0Z" fill="#BEBEBE"/>
<path d="M16 15.9825L11.6211 11.6211V31.9976L20.3789 23.2749V11.6211L16 15.9825Z" fill="#BEBEBE"/>
<path d="M23.2422 8.74506V31.9989L32.0001 23.2538V0L23.2422 8.74506Z" fill="#BEBEBE"/>
</g>
<path d="M43.2118 23V9.321H45.966L51.0887 16.1146H49.8035L54.7793 9.321H57.5335V23H54.6875V12.4607L55.8259 12.7178L50.5563 19.5114H50.189L45.103 12.7178L46.0578 12.4607V23H43.2118ZM64.5861 23.2203C63.5212 23.2203 62.597 22.9878 61.8136 22.5226C61.0302 22.0452 60.4243 21.4087 59.9959 20.6131C59.5674 19.8174 59.3532 18.9361 59.3532 17.9691C59.3532 16.9653 59.5736 16.0718 60.0142 15.2883C60.4671 14.5049 61.073 13.8868 61.832 13.4339C62.5909 12.981 63.4477 12.7545 64.4025 12.7545C65.1982 12.7545 65.902 12.883 66.514 13.1401C67.1261 13.3849 67.6402 13.7338 68.0564 14.1867C68.4848 14.6396 68.8092 15.1659 69.0295 15.7657C69.2498 16.3533 69.36 16.9959 69.36 17.6936C69.36 17.8895 69.3478 18.0854 69.3233 18.2812C69.311 18.4648 69.2804 18.6239 69.2315 18.7586H61.7218V16.7389H67.6708L66.3672 17.6936C66.4896 17.1673 66.4834 16.7022 66.3488 16.2982C66.2141 15.882 65.9754 15.5576 65.6327 15.3251C65.3022 15.0803 64.8921 14.9578 64.4025 14.9578C63.9251 14.9578 63.5151 15.0741 63.1723 15.3067C62.8296 15.5393 62.5725 15.882 62.4012 16.3349C62.2298 16.7878 62.1625 17.3387 62.1992 17.9874C62.1502 18.5505 62.2175 19.0462 62.4012 19.4747C62.5848 19.9031 62.8663 20.2397 63.2458 20.4845C63.6252 20.7171 64.0843 20.8334 64.6229 20.8334C65.1125 20.8334 65.5287 20.7355 65.8714 20.5396C66.2264 20.3438 66.5018 20.0745 66.6977 19.7317L68.901 20.7783C68.7051 21.2679 68.393 21.6964 67.9646 22.0636C67.5484 22.4308 67.0526 22.7185 66.4773 22.9266C65.902 23.1224 65.2716 23.2203 64.5861 23.2203ZM74.9111 23.2203C73.8094 23.2203 72.8485 22.9633 72.0284 22.4492C71.2205 21.9228 70.6697 21.219 70.3759 20.3376L72.3956 19.3829C72.6527 19.9215 73.0015 20.3438 73.4422 20.6498C73.8829 20.9558 74.3725 21.1088 74.9111 21.1088C75.3028 21.1088 75.6027 21.0292 75.8108 20.8701C76.0189 20.711 76.1229 20.4907 76.1229 20.2091C76.1229 20.0622 76.0862 19.9398 76.0127 19.8419C75.9393 19.7317 75.8291 19.6338 75.6822 19.5481C75.5354 19.4624 75.3517 19.389 75.1314 19.3278L73.4238 18.8504C72.6037 18.6178 71.9733 18.2445 71.5326 17.7304C71.092 17.204 70.8716 16.5859 70.8716 15.8759C70.8716 15.2516 71.0308 14.7069 71.349 14.2418C71.6673 13.7766 72.1141 13.4155 72.6894 13.1585C73.2647 12.8892 73.9257 12.7545 74.6724 12.7545C75.6516 12.7545 76.5085 12.9871 77.2429 13.4522C77.9896 13.9051 78.516 14.5478 78.822 15.3802L76.7839 16.3349C76.637 15.9187 76.3677 15.5882 75.976 15.3434C75.5966 15.0864 75.162 14.9578 74.6724 14.9578C74.3174 14.9578 74.0359 15.0313 73.8278 15.1782C73.6319 15.3251 73.534 15.527 73.534 15.7841C73.534 15.9187 73.5707 16.0412 73.6442 16.1513C73.7176 16.2615 73.8339 16.3594 73.993 16.4451C74.1644 16.5308 74.3725 16.6103 74.6173 16.6838L76.2147 17.1612C77.0471 17.406 77.6836 17.7793 78.1243 18.2812C78.5649 18.7708 78.7853 19.3767 78.7853 20.099C78.7853 20.7232 78.62 21.2679 78.2895 21.7331C77.9713 22.1982 77.5245 22.5655 76.9492 22.8348C76.3738 23.0918 75.6945 23.2203 74.9111 23.2203ZM84.3606 23.2203C83.2589 23.2203 82.298 22.9633 81.4779 22.4492C80.67 21.9228 80.1192 21.219 79.8254 20.3376L81.8451 19.3829C82.1022 19.9215 82.451 20.3438 82.8917 20.6498C83.3324 20.9558 83.822 21.1088 84.3606 21.1088C84.7523 21.1088 85.0522 21.0292 85.2603 20.8701C85.4684 20.711 85.5724 20.4907 85.5724 20.2091C85.5724 20.0622 85.5357 19.9398 85.4622 19.8419C85.3888 19.7317 85.2786 19.6338 85.1317 19.5481C84.9848 19.4624 84.8012 19.389 84.5809 19.3278L82.8733 18.8504C82.0532 18.6178 81.4228 18.2445 80.9821 17.7304C80.5415 17.204 80.3211 16.5859 80.3211 15.8759C80.3211 15.2516 80.4803 14.7069 80.7985 14.2418C81.1168 13.7766 81.5636 13.4155 82.1389 13.1585C82.7142 12.8892 83.3752 12.7545 84.1219 12.7545C85.1011 12.7545 85.958 12.9871 86.6924 13.4522C87.4391 13.9051 87.9655 14.5478 88.2715 15.3802L86.2334 16.3349C86.0865 15.9187 85.8172 15.5882 85.4255 15.3434C85.0461 15.0864 84.6115 14.9578 84.1219 14.9578C83.7669 14.9578 83.4854 15.0313 83.2773 15.1782C83.0814 15.3251 82.9835 15.527 82.9835 15.7841C82.9835 15.9187 83.0202 16.0412 83.0937 16.1513C83.1671 16.2615 83.2834 16.3594 83.4425 16.4451C83.6139 16.5308 83.822 16.6103 84.0668 16.6838L85.6642 17.1612C86.4966 17.406 87.1331 17.7793 87.5738 18.2812C88.0144 18.7708 88.2348 19.3767 88.2348 20.099C88.2348 20.7232 88.0695 21.2679 87.739 21.7331C87.4208 22.1982 86.974 22.5655 86.3987 22.8348C85.8233 23.0918 85.144 23.2203 84.3606 23.2203ZM92.9838 23.2203C92.2616 23.2203 91.6373 23.104 91.111 22.8715C90.5846 22.6389 90.1807 22.3084 89.8992 21.88C89.6176 21.4393 89.4769 20.9191 89.4769 20.3193C89.4769 19.7562 89.6054 19.2605 89.8624 18.832C90.1195 18.3914 90.5112 18.0241 91.0375 17.7304C91.5761 17.4366 92.2433 17.2285 93.0389 17.1061L96.1052 16.6103V18.6301L93.5347 19.0891C93.143 19.1625 92.8431 19.2911 92.635 19.4747C92.4269 19.646 92.3228 19.897 92.3228 20.2275C92.3228 20.5335 92.4391 20.7722 92.6717 20.9436C92.9043 21.1149 93.1919 21.2006 93.5347 21.2006C93.9876 21.2006 94.3854 21.1027 94.7281 20.9068C95.0709 20.711 95.334 20.4478 95.5176 20.1173C95.7135 19.7746 95.8114 19.4012 95.8114 18.9973V16.39C95.8114 16.0106 95.6584 15.6923 95.3524 15.4352C95.0586 15.1782 94.6547 15.0497 94.1406 15.0497C93.6509 15.0497 93.2164 15.1843 92.8369 15.4536C92.4697 15.7229 92.2004 16.0779 92.029 16.5185L89.8257 15.472C90.0216 14.9089 90.3337 14.4254 90.7621 14.0214C91.1906 13.6175 91.7047 13.3054 92.3045 13.085C92.9043 12.8647 93.5591 12.7545 94.2691 12.7545C95.1137 12.7545 95.8604 12.9075 96.5091 13.2135C97.1579 13.5196 97.6598 13.948 98.0148 14.4988C98.382 15.0374 98.5656 15.6678 98.5656 16.39V23H95.995V21.3842L96.6193 21.2741C96.3255 21.7147 96.0012 22.0819 95.6462 22.3757C95.2912 22.6573 94.8934 22.8654 94.4527 23C94.012 23.1469 93.5224 23.2203 92.9838 23.2203ZM100.585 23V12.9749H103.156V15.3802L102.972 15.0313C103.193 14.1867 103.554 13.6175 104.056 13.3237C104.57 13.0177 105.176 12.8647 105.873 12.8647H106.461V15.2516H105.598C104.925 15.2516 104.38 15.4597 103.964 15.8759C103.548 16.2798 103.34 16.8552 103.34 17.6018V23H100.585ZM107.668 23V12.9749H110.422V23H107.668ZM107.668 12.0752V9.321H110.422V12.0752H107.668ZM113.796 23V20.2458H116.551V23H113.796ZM119.933 23V12.9749H122.687V23H119.933ZM119.933 12.0752V9.321H122.687V12.0752H119.933ZM129.678 23.2203C128.687 23.2203 127.781 22.9939 126.961 22.541C126.153 22.0881 125.504 21.4699 125.014 20.6865C124.537 19.8909 124.298 18.9912 124.298 17.9874C124.298 16.9714 124.537 16.0718 125.014 15.2883C125.504 14.5049 126.153 13.8868 126.961 13.4339C127.781 12.981 128.687 12.7545 129.678 12.7545C130.67 12.7545 131.569 12.981 132.377 13.4339C133.185 13.8868 133.828 14.5049 134.305 15.2883C134.795 16.0718 135.04 16.9714 135.04 17.9874C135.04 18.9912 134.795 19.8909 134.305 20.6865C133.828 21.4699 133.185 22.0881 132.377 22.541C131.569 22.9939 130.67 23.2203 129.678 23.2203ZM129.678 20.7416C130.18 20.7416 130.615 20.6253 130.982 20.3927C131.361 20.1602 131.655 19.8358 131.863 19.4196C132.083 19.0034 132.194 18.526 132.194 17.9874C132.194 17.4488 132.083 16.9776 131.863 16.5736C131.655 16.1574 131.361 15.8331 130.982 15.6005C130.615 15.3557 130.18 15.2333 129.678 15.2333C129.176 15.2333 128.736 15.3557 128.356 15.6005C127.977 15.8331 127.677 16.1574 127.456 16.5736C127.248 16.9776 127.144 17.4488 127.144 17.9874C127.144 18.526 127.248 19.0034 127.456 19.4196C127.677 19.8358 127.977 20.1602 128.356 20.3927C128.736 20.6253 129.176 20.7416 129.678 20.7416Z" fill="#BEBEBE"/>
<defs>
<clipPath id="clip0_411_127">
<rect width="32" height="32" fill="white"/>
</clipPath>
</defs>
</svg>
