<svg width="206" height="37" viewBox="0 0 206 37" fill="none" xmlns="http://www.w3.org/2000/svg">
<path d="M60.6413 26.0952L47.465 3.61146C44.5756 -1.07209 37.5408 -1.12703 34.7492 3.80375L20.9308 27.1803C18.3485 31.4655 21.5449 36.8496 26.7094 36.8496H54.416C59.6224 36.8496 63.5306 31.3282 60.6413 26.0952Z" fill="#4E4E4E"/>
<path d="M41.6445 27.8392L40.8349 26.4383C40.0812 25.1472 38.4062 22.3453 38.4062 22.3453L27.2537 3.30898C24.3784 -0.921318 17.539 -1.27842 14.6496 4.0644L1.68265 26.1361C-0.997294 30.7785 2.18513 36.808 8.01959 36.8492H35.5727H47.3254H54.3183C47.1718 36.9042 44.8827 33.2645 41.6445 27.8392Z" fill="#D9D9D9"/>
<path d="M41.6444 27.8393L40.8349 26.4384C40.0812 25.1473 38.4062 22.3454 38.4062 22.3454L31.1341 9.9292L20.8749 27.235C18.2927 31.5202 21.4891 36.9042 26.6535 36.9042H35.5169H47.2695H54.3044C47.116 36.8493 44.8827 33.2645 41.6444 27.8393Z" fill="url(#paint0_linear_54_174)"/>
<path d="M113.417 34.7759V4.36719H139.099V6.29005C139.099 7.81461 137.857 9.037 136.308 9.037H119.823V17.2092H136.308V21.879H119.823V30.0512H136.308C137.843 30.0512 139.099 31.2736 139.099 32.7981V34.721L113.417 34.7759Z" fill="#D9D9D9"/>
<path d="M175.99 4.36719H169.947C168.816 4.36719 167.811 4.83417 167.099 5.71319L159.799 14.7644L152.499 5.78187C151.787 4.90284 150.782 4.43586 149.652 4.43586H143.608L155.891 19.6128L143.608 34.7897H149.652C150.782 34.7897 151.787 34.3227 152.499 33.4436L159.799 24.4611L167.155 33.5123C167.867 34.3227 168.872 34.8583 170.002 34.8583H176.046L163.763 19.6814L175.99 4.36719Z" fill="#D9D9D9"/>
<path d="M93.3031 31.5618L101.72 17.0854V34.7071H108.127V4.31207H104.148C102.906 4.31207 101.72 4.95761 101.12 6.07012L91.0419 24.1588L80.9642 6.05639C80.364 4.94387 79.1776 4.29834 77.9353 4.29834H73.9712V34.7071H80.378V17.0854L88.7946 31.5618H93.3031Z" fill="#D9D9D9"/>
<path d="M192.726 35.1187C183.835 35.2286 176.591 28.3475 176.535 19.5985C176.535 14.805 178.014 10.8357 180.806 8.10248C183.598 5.41047 187.631 3.95459 192.433 3.95459C198.072 3.95459 202.511 5.87746 205.721 9.61331L203.711 11.3027C202.469 12.3465 200.626 12.4152 199.258 11.4263C197.472 10.0803 195.225 9.43475 192.67 9.43475C186.389 9.43475 182.648 13.1706 182.648 19.4749C182.648 25.834 186.501 29.7484 192.67 29.7484C195.28 29.7484 197.472 29.048 199.258 27.7706C200.57 26.7817 202.399 26.8367 203.711 27.8943L205.721 29.5836C202.511 33.2508 198.239 35.1187 192.726 35.1187Z" fill="#D9D9D9"/>
<defs>
<linearGradient id="paint0_linear_54_174" x1="17.8555" y1="19.4084" x2="47.7381" y2="31.331" gradientUnits="userSpaceOnUse">
<stop stop-color="#BFBFBF"/>
<stop offset="1" stop-color="#4E4E4E"/>
</linearGradient>
</defs>
</svg>
