<svg width="161" height="52" viewBox="0 0 161 52" fill="none" xmlns="http://www.w3.org/2000/svg">
<mask id="path-1-inside-1_56_205" fill="white">
<path fill-rule="evenodd" clip-rule="evenodd" d="M24.0306 0.207239C22.9015 0.310465 21.0675 0.60724 19.9552 0.866478C17.6446 1.40548 13.0819 3.57792 11.0426 5.10989C9.32232 6.40227 5.41146 10.4606 5.40999 10.9551C5.4094 11.1568 5.29885 11.3216 5.16424 11.3216C4.93257 11.3216 3.01849 14.9694 2.08682 17.1867C1.2962 19.068 0.716726 22.7829 0.721125 25.9425C0.732855 34.4601 4.87451 42.1883 12.0071 47.0018C19.2132 51.8651 28.0297 52.8182 36.1587 49.6126C47.4834 45.1466 54.1089 33.083 51.8608 21.0219C51.6031 19.6384 51.2913 18.3744 51.1682 18.2131C51.045 18.0519 50.8511 17.524 50.7371 17.0401C49.9925 13.882 46.8215 9.3357 43.0593 6.03276C40.7321 3.98936 35.7323 1.38407 33.2681 0.930701C32.7036 0.826888 31.7139 0.621902 31.0687 0.475274C29.418 0.0999071 26.4417 -0.0132896 24.0306 0.207239ZM24.4822 10.4477C25.1209 10.7738 25.6435 11.165 25.6435 11.3172C25.6435 11.4697 25.9314 11.7483 26.2836 11.9369C26.8226 12.2254 27.0007 12.1847 27.4095 11.68C28.0499 10.8891 30.0048 9.85535 30.8605 9.85535C31.7857 9.85535 33.9156 10.863 34.3784 11.5196C34.586 11.814 34.9197 12.3847 35.1203 12.7879C35.3787 13.3079 35.8458 13.5973 36.7268 13.7835C38.3643 14.1296 39.8461 15.7325 40.1218 17.456C40.2587 18.3128 40.5834 18.924 41.1585 19.4079C42.9039 20.8768 43.3705 23.0008 42.3611 24.8841L41.7766 25.9744L42.3978 27.1659C42.8549 28.0431 42.9807 28.6941 42.8749 29.6337C42.7303 30.9173 42.564 31.2094 41.1488 32.6683C40.7247 33.105 40.2253 34.0997 40.0388 34.8789C39.6326 36.5748 38.7367 37.4818 36.7708 38.1888C35.8655 38.5144 35.2537 38.9308 35.1362 39.3015C34.796 40.373 33.0388 41.8167 32.0165 41.8645C29.6004 41.9771 28.3939 41.5586 27.3461 40.244L26.8496 39.6208L25.8206 40.6179C24.6801 41.7229 23.2385 42.1108 21.4446 41.7953C20.2033 41.5771 18.6766 40.3 18.4162 39.2625C18.3238 38.895 18.0825 38.5944 17.8795 38.5944C17.6766 38.5944 16.866 38.3264 16.0783 37.9985C14.4953 37.3402 13.3267 35.7624 13.3267 34.2841C13.3267 33.7032 13.0382 33.2322 12.342 32.6765C11.7185 32.1794 11.1889 31.38 10.8989 30.4994C10.4678 29.1894 10.4757 29.0143 11.0335 27.5231L11.6264 25.9387L11.0273 24.4973C10.4581 23.1272 10.4516 22.9868 10.8992 21.6609C11.3915 20.2014 12.3358 18.9601 12.9602 18.9513C13.1877 18.9483 13.3267 18.5272 13.3267 17.8413C13.3267 15.8577 15.4637 13.6677 17.3995 13.6677C17.8112 13.6677 18.1429 13.3562 18.4144 12.7146C18.8687 11.6407 19.5206 10.9873 20.8053 10.3172C21.9913 9.69905 23.091 9.73805 24.4822 10.4477ZM21.5379 10.7351C21.5379 10.8964 21.3297 11.0284 21.0754 11.0284C20.4059 11.0284 18.8986 12.6375 18.8986 13.3518C18.8986 13.6867 19.0555 13.9609 19.247 13.9609C20.0877 13.9609 21.5487 15.3366 21.9479 16.5038C22.1781 17.1765 22.2898 17.8032 22.1965 17.8967C21.8288 18.2645 21.5379 18.0331 21.5379 17.373C21.5379 15.9023 19.5018 14.2542 17.6851 14.2542C15.8088 14.2542 13.9132 16.2557 13.9132 18.2369C13.9132 18.7882 13.8006 19.2395 13.6628 19.2395C13.1361 19.2395 11.8036 20.7609 11.5376 21.6656C10.9349 23.717 11.7986 25.583 13.722 26.3868C14.3112 26.6328 14.793 26.973 14.793 27.1425C14.793 27.592 14.142 27.5193 13.3783 26.9847C12.4871 26.3604 11.9904 26.6088 11.5678 27.8891C11.1135 29.2654 11.3892 30.6759 12.3203 31.7375L13.061 32.5827L13.7789 31.7029C14.1739 31.219 14.4974 30.7404 14.4983 30.6393C14.5006 30.344 17.4701 29.1504 17.6804 29.3604C17.9276 29.6079 16.8707 30.3818 16.2766 30.3882C15.7596 30.3941 14.4997 31.6152 14.4997 32.1108C14.4997 32.2897 14.3678 32.436 14.2065 32.436C13.7745 32.436 13.8499 34.5929 14.3132 35.4859C15.2519 37.2953 16.9634 38.0044 19.0094 37.4314C20.2681 37.0789 21.5379 35.7026 21.5379 34.6906C21.5379 34.4185 21.73 34.1956 21.9649 34.1956C22.3361 34.1956 22.3379 34.3478 21.9786 35.366C21.5045 36.7097 20.8531 37.4478 19.705 37.9416C18.6226 38.4073 18.6895 39.0305 19.9584 40.2994C20.9106 41.2516 21.1769 41.3595 22.5792 41.3595C23.9572 41.3595 24.2467 41.2478 25.0487 40.4085C25.5484 39.8856 26.0848 39.1229 26.2402 38.7138C26.4021 38.2883 26.5232 33.6472 26.5232 27.8715C26.5232 21.3348 26.6268 17.7733 26.8165 17.7733C27.0065 17.7733 27.1097 21.3997 27.1097 28.0662C27.1097 36.7167 27.1816 38.5067 27.5593 39.2833C28.2314 40.6648 29.3444 41.3466 30.9276 41.3466C33.4335 41.3466 34.9529 39.5627 34.6599 36.9648C34.486 35.4214 33.9133 34.6865 32.3447 33.9944C31.0432 33.4202 30.8291 32.8645 32.0218 33.1566C33.3898 33.4918 34.5881 34.5067 35.1127 35.7751C35.3884 36.4419 35.6142 37.1513 35.6142 37.3513C35.6142 37.7885 35.7526 37.795 37.0972 37.4217C38.4461 37.0469 39.425 35.7293 39.4309 34.2806C39.4362 32.9683 39.6455 32.5841 40.4992 32.3179C41.1024 32.1296 42.359 29.9686 42.359 29.119C42.359 28.3108 41.2605 26.514 40.4326 25.9683C39.8822 25.6055 39.0617 25.4011 38.1508 25.4C36.923 25.3982 36.5922 25.5343 35.7315 26.395C35.1089 27.0176 34.7344 27.6783 34.7344 28.1545C34.7344 28.6366 34.5728 28.917 34.2945 28.917C33.3502 28.917 34.2491 26.531 35.5649 25.5445C36.4118 24.9096 39.1259 24.7322 40.6702 25.2111C41.3256 25.414 41.5063 25.3598 41.6497 24.9158C41.7464 24.6164 41.9673 24.0759 42.1403 23.7146C42.3717 23.2316 42.3538 22.7513 42.0722 21.8988C41.6283 20.5527 40.2755 19.1791 40.0564 19.8516C39.9822 20.0794 39.4139 20.7609 38.7939 21.3656C37.9986 22.1413 37.4071 22.4653 36.7869 22.4653C36.303 22.4653 35.9074 22.3334 35.9074 22.1721C35.9074 22.0108 36.2329 21.8788 36.6309 21.8788C37.6139 21.8788 39.4171 20.0486 39.4576 19.0099C39.5324 17.0888 39.3409 16.456 38.3995 15.5146C37.8655 14.9806 37.0394 14.4659 36.5637 14.3709C35.7933 14.2167 35.6793 14.2891 35.5212 15.0325C35.1241 16.8999 33.1315 18.9422 31.7042 18.9451C30.876 18.9469 31.2939 18.268 32.2778 18.0131C32.7596 17.8882 33.4763 17.4428 33.8708 17.0228C34.4713 16.3838 34.5878 15.9659 34.5878 14.4504C34.5878 12.4515 34.1992 11.829 32.3863 10.9246C31.1807 10.3234 30.6705 10.3199 29.4986 10.9043C27.9546 11.6744 27.1097 13.0507 27.1097 14.795C27.1097 16.8214 26.6306 16.7272 26.4599 14.6671C26.3851 13.765 26.1942 12.9404 26.0355 12.8342C25.8769 12.7281 25.6646 12.4166 25.5634 12.1419C25.2027 11.1636 21.5379 9.88263 21.5379 10.7351ZM33.1015 13.4228C33.4464 14.114 33.4493 14.2542 33.1188 14.2542C32.9001 14.2542 32.642 14.0046 32.5449 13.6993C32.4482 13.3941 32.1095 13.0765 31.7922 12.9938C31.4749 12.9108 31.2153 12.6354 31.2153 12.3818C31.2153 11.6521 32.5992 12.4158 33.1015 13.4228ZM24.0408 12.675C24.7479 13.1384 25.0514 14.2542 24.4704 14.2542C24.3092 14.2542 24.1772 14.1158 24.1772 13.9469C24.1772 13.7779 23.8144 13.3202 23.3707 12.9298C22.4619 12.1298 22.9347 11.9501 24.0408 12.675ZM19.3517 16.4404C20.0804 17.1692 20.3159 18.0665 19.7783 18.0665C19.6171 18.0665 19.4851 17.8715 19.4851 17.6334C19.4851 17.3953 19.1552 16.9841 18.752 16.7199C18.3487 16.4557 18.0188 16.1228 18.0188 15.98C18.0188 15.5038 18.6241 15.7126 19.3517 16.4404ZM14.793 20.8181C14.793 21.0413 14.5291 21.2929 14.2065 21.3774C13.8839 21.4615 13.62 21.741 13.62 21.9979C13.62 22.2551 13.425 22.4653 13.1863 22.4653C12.2725 22.4653 13.5713 20.7434 14.7197 20.4325C14.7602 20.4214 14.793 20.5953 14.793 20.8181ZM23.8839 20.8319C23.8839 21.0627 23.5983 21.2938 23.249 21.3451C22.8792 21.4 22.4203 21.834 22.1493 22.3853C21.6493 23.4035 21.2446 23.6272 21.2446 22.8859C21.2446 22.0583 21.8608 21.2519 22.8074 20.8401C23.9672 20.3354 23.8839 20.336 23.8839 20.8319ZM31.2153 20.8208C31.2153 21.0451 30.9021 21.3073 30.5194 21.4035C30.1147 21.5049 29.6699 21.9483 29.4573 22.4615C29.0549 23.4331 28.5722 23.6375 28.5825 22.8319C28.5945 21.9026 29.8004 20.7712 31.142 20.431C31.1825 20.4211 31.2153 20.5961 31.2153 20.8208ZM31.0725 24.8835C31.2317 25.2457 31.7273 25.7158 32.1743 25.9284C33.2919 26.4607 32.8936 26.9525 31.7294 26.4774C30.7461 26.0762 29.6631 24.2249 30.4118 24.2249C30.6159 24.2249 30.9133 24.5214 31.0725 24.8835ZM20.3649 25.3346C20.3649 25.4612 19.9769 25.7938 19.503 26.0739C19.0288 26.3539 18.5581 26.8442 18.4566 27.1636C18.264 27.7709 17.4323 27.9803 17.4323 27.4214C17.4323 26.9243 19.3672 25.1047 19.8957 25.1047C20.1537 25.1047 20.3649 25.2082 20.3649 25.3346ZM23.0042 29.3481C23.0042 29.5853 23.4001 30.0718 23.8839 30.4296C24.8077 31.1126 25.0144 31.5627 24.3971 31.5469C23.7675 31.5311 22.4177 30.1472 22.4177 29.5176C22.4177 29.1874 22.5496 28.917 22.7109 28.917C22.8722 28.917 23.0042 29.1111 23.0042 29.3481ZM30.6033 29.583C30.7426 29.9492 31.2012 30.4334 31.6224 30.6589C32.6253 31.1956 32.608 31.675 31.5951 31.4208C30.4476 31.1328 28.9584 28.917 29.9124 28.917C30.1532 28.917 30.464 29.2167 30.6033 29.583ZM40.8928 29.4809C40.8928 29.9472 39.3948 31.5563 38.9605 31.5563C38.359 31.5563 38.4379 31.363 39.4998 30.234C40.4587 29.2149 40.8928 28.9803 40.8928 29.4809ZM20.0716 34.502C20.0716 34.6707 19.7476 35.1325 19.3517 35.5284C18.6851 36.195 18.0188 36.4724 18.0188 36.083C18.0188 35.8381 19.5959 34.2261 19.8517 34.2097C19.9725 34.202 20.0716 34.3334 20.0716 34.502ZM29.5092 38.4478C29.6927 38.851 30.02 39.1809 30.2361 39.1809C30.452 39.1809 30.6288 39.3129 30.6288 39.4742C30.6288 39.9894 29.7919 39.7888 29.174 39.1255C28.5358 38.4408 28.3822 37.7146 28.8754 37.7146C29.0402 37.7146 29.3253 38.0446 29.5092 38.4478Z"/>
</mask>
<path fill-rule="evenodd" clip-rule="evenodd" d="M24.0306 0.207239C22.9015 0.310465 21.0675 0.60724 19.9552 0.866478C17.6446 1.40548 13.0819 3.57792 11.0426 5.10989C9.32232 6.40227 5.41146 10.4606 5.40999 10.9551C5.4094 11.1568 5.29885 11.3216 5.16424 11.3216C4.93257 11.3216 3.01849 14.9694 2.08682 17.1867C1.2962 19.068 0.716726 22.7829 0.721125 25.9425C0.732855 34.4601 4.87451 42.1883 12.0071 47.0018C19.2132 51.8651 28.0297 52.8182 36.1587 49.6126C47.4834 45.1466 54.1089 33.083 51.8608 21.0219C51.6031 19.6384 51.2913 18.3744 51.1682 18.2131C51.045 18.0519 50.8511 17.524 50.7371 17.0401C49.9925 13.882 46.8215 9.3357 43.0593 6.03276C40.7321 3.98936 35.7323 1.38407 33.2681 0.930701C32.7036 0.826888 31.7139 0.621902 31.0687 0.475274C29.418 0.0999071 26.4417 -0.0132896 24.0306 0.207239ZM24.4822 10.4477C25.1209 10.7738 25.6435 11.165 25.6435 11.3172C25.6435 11.4697 25.9314 11.7483 26.2836 11.9369C26.8226 12.2254 27.0007 12.1847 27.4095 11.68C28.0499 10.8891 30.0048 9.85535 30.8605 9.85535C31.7857 9.85535 33.9156 10.863 34.3784 11.5196C34.586 11.814 34.9197 12.3847 35.1203 12.7879C35.3787 13.3079 35.8458 13.5973 36.7268 13.7835C38.3643 14.1296 39.8461 15.7325 40.1218 17.456C40.2587 18.3128 40.5834 18.924 41.1585 19.4079C42.9039 20.8768 43.3705 23.0008 42.3611 24.8841L41.7766 25.9744L42.3978 27.1659C42.8549 28.0431 42.9807 28.6941 42.8749 29.6337C42.7303 30.9173 42.564 31.2094 41.1488 32.6683C40.7247 33.105 40.2253 34.0997 40.0388 34.8789C39.6326 36.5748 38.7367 37.4818 36.7708 38.1888C35.8655 38.5144 35.2537 38.9308 35.1362 39.3015C34.796 40.373 33.0388 41.8167 32.0165 41.8645C29.6004 41.9771 28.3939 41.5586 27.3461 40.244L26.8496 39.6208L25.8206 40.6179C24.6801 41.7229 23.2385 42.1108 21.4446 41.7953C20.2033 41.5771 18.6766 40.3 18.4162 39.2625C18.3238 38.895 18.0825 38.5944 17.8795 38.5944C17.6766 38.5944 16.866 38.3264 16.0783 37.9985C14.4953 37.3402 13.3267 35.7624 13.3267 34.2841C13.3267 33.7032 13.0382 33.2322 12.342 32.6765C11.7185 32.1794 11.1889 31.38 10.8989 30.4994C10.4678 29.1894 10.4757 29.0143 11.0335 27.5231L11.6264 25.9387L11.0273 24.4973C10.4581 23.1272 10.4516 22.9868 10.8992 21.6609C11.3915 20.2014 12.3358 18.9601 12.9602 18.9513C13.1877 18.9483 13.3267 18.5272 13.3267 17.8413C13.3267 15.8577 15.4637 13.6677 17.3995 13.6677C17.8112 13.6677 18.1429 13.3562 18.4144 12.7146C18.8687 11.6407 19.5206 10.9873 20.8053 10.3172C21.9913 9.69905 23.091 9.73805 24.4822 10.4477ZM21.5379 10.7351C21.5379 10.8964 21.3297 11.0284 21.0754 11.0284C20.4059 11.0284 18.8986 12.6375 18.8986 13.3518C18.8986 13.6867 19.0555 13.9609 19.247 13.9609C20.0877 13.9609 21.5487 15.3366 21.9479 16.5038C22.1781 17.1765 22.2898 17.8032 22.1965 17.8967C21.8288 18.2645 21.5379 18.0331 21.5379 17.373C21.5379 15.9023 19.5018 14.2542 17.6851 14.2542C15.8088 14.2542 13.9132 16.2557 13.9132 18.2369C13.9132 18.7882 13.8006 19.2395 13.6628 19.2395C13.1361 19.2395 11.8036 20.7609 11.5376 21.6656C10.9349 23.717 11.7986 25.583 13.722 26.3868C14.3112 26.6328 14.793 26.973 14.793 27.1425C14.793 27.592 14.142 27.5193 13.3783 26.9847C12.4871 26.3604 11.9904 26.6088 11.5678 27.8891C11.1135 29.2654 11.3892 30.6759 12.3203 31.7375L13.061 32.5827L13.7789 31.7029C14.1739 31.219 14.4974 30.7404 14.4983 30.6393C14.5006 30.344 17.4701 29.1504 17.6804 29.3604C17.9276 29.6079 16.8707 30.3818 16.2766 30.3882C15.7596 30.3941 14.4997 31.6152 14.4997 32.1108C14.4997 32.2897 14.3678 32.436 14.2065 32.436C13.7745 32.436 13.8499 34.5929 14.3132 35.4859C15.2519 37.2953 16.9634 38.0044 19.0094 37.4314C20.2681 37.0789 21.5379 35.7026 21.5379 34.6906C21.5379 34.4185 21.73 34.1956 21.9649 34.1956C22.3361 34.1956 22.3379 34.3478 21.9786 35.366C21.5045 36.7097 20.8531 37.4478 19.705 37.9416C18.6226 38.4073 18.6895 39.0305 19.9584 40.2994C20.9106 41.2516 21.1769 41.3595 22.5792 41.3595C23.9572 41.3595 24.2467 41.2478 25.0487 40.4085C25.5484 39.8856 26.0848 39.1229 26.2402 38.7138C26.4021 38.2883 26.5232 33.6472 26.5232 27.8715C26.5232 21.3348 26.6268 17.7733 26.8165 17.7733C27.0065 17.7733 27.1097 21.3997 27.1097 28.0662C27.1097 36.7167 27.1816 38.5067 27.5593 39.2833C28.2314 40.6648 29.3444 41.3466 30.9276 41.3466C33.4335 41.3466 34.9529 39.5627 34.6599 36.9648C34.486 35.4214 33.9133 34.6865 32.3447 33.9944C31.0432 33.4202 30.8291 32.8645 32.0218 33.1566C33.3898 33.4918 34.5881 34.5067 35.1127 35.7751C35.3884 36.4419 35.6142 37.1513 35.6142 37.3513C35.6142 37.7885 35.7526 37.795 37.0972 37.4217C38.4461 37.0469 39.425 35.7293 39.4309 34.2806C39.4362 32.9683 39.6455 32.5841 40.4992 32.3179C41.1024 32.1296 42.359 29.9686 42.359 29.119C42.359 28.3108 41.2605 26.514 40.4326 25.9683C39.8822 25.6055 39.0617 25.4011 38.1508 25.4C36.923 25.3982 36.5922 25.5343 35.7315 26.395C35.1089 27.0176 34.7344 27.6783 34.7344 28.1545C34.7344 28.6366 34.5728 28.917 34.2945 28.917C33.3502 28.917 34.2491 26.531 35.5649 25.5445C36.4118 24.9096 39.1259 24.7322 40.6702 25.2111C41.3256 25.414 41.5063 25.3598 41.6497 24.9158C41.7464 24.6164 41.9673 24.0759 42.1403 23.7146C42.3717 23.2316 42.3538 22.7513 42.0722 21.8988C41.6283 20.5527 40.2755 19.1791 40.0564 19.8516C39.9822 20.0794 39.4139 20.7609 38.7939 21.3656C37.9986 22.1413 37.4071 22.4653 36.7869 22.4653C36.303 22.4653 35.9074 22.3334 35.9074 22.1721C35.9074 22.0108 36.2329 21.8788 36.6309 21.8788C37.6139 21.8788 39.4171 20.0486 39.4576 19.0099C39.5324 17.0888 39.3409 16.456 38.3995 15.5146C37.8655 14.9806 37.0394 14.4659 36.5637 14.3709C35.7933 14.2167 35.6793 14.2891 35.5212 15.0325C35.1241 16.8999 33.1315 18.9422 31.7042 18.9451C30.876 18.9469 31.2939 18.268 32.2778 18.0131C32.7596 17.8882 33.4763 17.4428 33.8708 17.0228C34.4713 16.3838 34.5878 15.9659 34.5878 14.4504C34.5878 12.4515 34.1992 11.829 32.3863 10.9246C31.1807 10.3234 30.6705 10.3199 29.4986 10.9043C27.9546 11.6744 27.1097 13.0507 27.1097 14.795C27.1097 16.8214 26.6306 16.7272 26.4599 14.6671C26.3851 13.765 26.1942 12.9404 26.0355 12.8342C25.8769 12.7281 25.6646 12.4166 25.5634 12.1419C25.2027 11.1636 21.5379 9.88263 21.5379 10.7351ZM33.1015 13.4228C33.4464 14.114 33.4493 14.2542 33.1188 14.2542C32.9001 14.2542 32.642 14.0046 32.5449 13.6993C32.4482 13.3941 32.1095 13.0765 31.7922 12.9938C31.4749 12.9108 31.2153 12.6354 31.2153 12.3818C31.2153 11.6521 32.5992 12.4158 33.1015 13.4228ZM24.0408 12.675C24.7479 13.1384 25.0514 14.2542 24.4704 14.2542C24.3092 14.2542 24.1772 14.1158 24.1772 13.9469C24.1772 13.7779 23.8144 13.3202 23.3707 12.9298C22.4619 12.1298 22.9347 11.9501 24.0408 12.675ZM19.3517 16.4404C20.0804 17.1692 20.3159 18.0665 19.7783 18.0665C19.6171 18.0665 19.4851 17.8715 19.4851 17.6334C19.4851 17.3953 19.1552 16.9841 18.752 16.7199C18.3487 16.4557 18.0188 16.1228 18.0188 15.98C18.0188 15.5038 18.6241 15.7126 19.3517 16.4404ZM14.793 20.8181C14.793 21.0413 14.5291 21.2929 14.2065 21.3774C13.8839 21.4615 13.62 21.741 13.62 21.9979C13.62 22.2551 13.425 22.4653 13.1863 22.4653C12.2725 22.4653 13.5713 20.7434 14.7197 20.4325C14.7602 20.4214 14.793 20.5953 14.793 20.8181ZM23.8839 20.8319C23.8839 21.0627 23.5983 21.2938 23.249 21.3451C22.8792 21.4 22.4203 21.834 22.1493 22.3853C21.6493 23.4035 21.2446 23.6272 21.2446 22.8859C21.2446 22.0583 21.8608 21.2519 22.8074 20.8401C23.9672 20.3354 23.8839 20.336 23.8839 20.8319ZM31.2153 20.8208C31.2153 21.0451 30.9021 21.3073 30.5194 21.4035C30.1147 21.5049 29.6699 21.9483 29.4573 22.4615C29.0549 23.4331 28.5722 23.6375 28.5825 22.8319C28.5945 21.9026 29.8004 20.7712 31.142 20.431C31.1825 20.4211 31.2153 20.5961 31.2153 20.8208ZM31.0725 24.8835C31.2317 25.2457 31.7273 25.7158 32.1743 25.9284C33.2919 26.4607 32.8936 26.9525 31.7294 26.4774C30.7461 26.0762 29.6631 24.2249 30.4118 24.2249C30.6159 24.2249 30.9133 24.5214 31.0725 24.8835ZM20.3649 25.3346C20.3649 25.4612 19.9769 25.7938 19.503 26.0739C19.0288 26.3539 18.5581 26.8442 18.4566 27.1636C18.264 27.7709 17.4323 27.9803 17.4323 27.4214C17.4323 26.9243 19.3672 25.1047 19.8957 25.1047C20.1537 25.1047 20.3649 25.2082 20.3649 25.3346ZM23.0042 29.3481C23.0042 29.5853 23.4001 30.0718 23.8839 30.4296C24.8077 31.1126 25.0144 31.5627 24.3971 31.5469C23.7675 31.5311 22.4177 30.1472 22.4177 29.5176C22.4177 29.1874 22.5496 28.917 22.7109 28.917C22.8722 28.917 23.0042 29.1111 23.0042 29.3481ZM30.6033 29.583C30.7426 29.9492 31.2012 30.4334 31.6224 30.6589C32.6253 31.1956 32.608 31.675 31.5951 31.4208C30.4476 31.1328 28.9584 28.917 29.9124 28.917C30.1532 28.917 30.464 29.2167 30.6033 29.583ZM40.8928 29.4809C40.8928 29.9472 39.3948 31.5563 38.9605 31.5563C38.359 31.5563 38.4379 31.363 39.4998 30.234C40.4587 29.2149 40.8928 28.9803 40.8928 29.4809ZM20.0716 34.502C20.0716 34.6707 19.7476 35.1325 19.3517 35.5284C18.6851 36.195 18.0188 36.4724 18.0188 36.083C18.0188 35.8381 19.5959 34.2261 19.8517 34.2097C19.9725 34.202 20.0716 34.3334 20.0716 34.502ZM29.5092 38.4478C29.6927 38.851 30.02 39.1809 30.2361 39.1809C30.452 39.1809 30.6288 39.3129 30.6288 39.4742C30.6288 39.9894 29.7919 39.7888 29.174 39.1255C28.5358 38.4408 28.3822 37.7146 28.8754 37.7146C29.0402 37.7146 29.3253 38.0446 29.5092 38.4478Z" fill="#6C6B6C" stroke="#BFBFBF" stroke-width="2" mask="url(#path-1-inside-1_56_205)"/>
<path d="M63.8257 40.0664V11.5088H74.7887C76.7565 11.5088 78.4942 11.8538 80.0019 12.5438C81.5352 13.2337 82.7363 14.2559 83.6052 15.6104C84.474 16.9648 84.9085 18.6386 84.9085 20.6319C84.9085 22.5741 84.4613 24.2224 83.5668 25.5768C82.698 26.9312 81.4969 27.9661 79.9636 28.6817C78.4559 29.3717 76.7309 29.7167 74.7887 29.7167H69.7672V40.0664H63.8257ZM69.7672 24.5418H74.8271C75.6704 24.5418 76.3987 24.3757 77.012 24.0435C77.6253 23.7113 78.0981 23.2513 78.4303 22.6635C78.7881 22.0757 78.967 21.3985 78.967 20.6319C78.967 19.8397 78.7881 19.1497 78.4303 18.5619C78.0981 17.9742 77.6253 17.5142 77.012 17.182C76.3987 16.8498 75.6704 16.6837 74.8271 16.6837H69.7672V24.5418Z" fill="white"/>
<path d="M84.3275 40.0664L93.9873 11.5088H101.884L111.543 40.0664H105.065L103.149 34.2399H92.684L90.7673 40.0664H84.3275ZM94.3323 29.065H101.5L97.1305 15.572H98.7405L94.3323 29.065Z" fill="white"/>
<path d="M112.403 40.0664L122.063 11.5088H129.959L139.619 40.0664H133.141L131.224 34.2399H120.759L118.843 40.0664H112.403ZM122.408 29.065H129.576L125.206 15.572H126.816L122.408 29.065Z" fill="white"/>
<path d="M142.587 40.0664V11.5088H148.528V34.8915H160.603V40.0664H142.587Z" fill="white"/>
</svg>
