<svg width="172" height="29" viewBox="0 0 172 29" fill="none" xmlns="http://www.w3.org/2000/svg">
<path fill-rule="evenodd" clip-rule="evenodd" d="M27.4003 9.81542C27.2003 9.11542 26.8003 8.51542 26.3003 8.01542C24.1003 5.51542 22.1003 4.61542 18.7003 6.21542H18.5003C17.2003 6.31542 16.1003 7.11542 15.8003 8.41542C14.6003 12.0154 13.2003 15.5154 11.9003 19.0154C11.7003 19.3154 11.5003 19.5154 11.3003 19.8154C8.90027 21.6154 6.60027 23.2154 3.30027 21.8154C2.10027 21.3154 0.100268 21.5154 1.10027 23.9154C1.20027 24.2154 1.30027 24.5154 1.60027 24.7154C1.90027 25.0154 2.30027 25.3154 2.70027 25.5154C7.30027 28.5154 12.4003 29.2154 17.3003 26.8154C22.9003 24.1154 26.9003 19.9154 27.3003 13.3154C27.6003 12.2154 27.6003 11.0154 27.4003 9.81542Z" fill="#BEBEBE"/>
<path fill-rule="evenodd" clip-rule="evenodd" d="M25.4004 6.31521C25.4004 5.41521 25.5004 4.51521 25.7004 3.51521C26.0004 1.11521 24.7004 0.115206 23.7004 0.0152063C22.7004 -0.0847937 21.8004 0.315206 21.1004 1.01521C20.7004 1.31521 20.7004 1.91521 21.0004 2.31521C21.5004 2.81521 21.9004 2.81521 22.1004 1.81521C22.6004 0.215206 24.5004 1.81521 24.4004 2.61521C24.3004 4.31521 23.1004 4.91521 22.0004 5.61521C20.9004 6.31521 20.0004 6.51521 18.3004 7.11521C18.0004 7.21521 17.9004 7.61521 18.0004 7.91521C18.0004 8.01521 18.1004 8.11521 18.2004 8.11521C18.6004 8.21521 19.1004 8.21521 19.5004 8.11521C20.9004 7.91521 21.3004 8.31521 21.8004 9.71521C22.7004 9.31521 23.6004 9.21521 24.5004 9.31521C25.4004 9.61521 25.4004 10.2152 25.8004 10.6152C26.0004 10.7152 26.2004 10.6152 26.3004 10.4152C26.3004 10.4152 26.3004 10.3152 26.3004 10.2152C25.7004 9.01521 25.3004 7.71521 25.4004 6.31521Z" fill="#4A4A4C"/>
<path fill-rule="evenodd" clip-rule="evenodd" d="M43.1002 20.6154C42.8002 20.7154 42.6002 20.7154 42.3002 20.7154C42.0002 20.7154 41.8002 20.7154 41.5002 20.7154C41.0002 20.7154 40.6002 20.6154 40.2002 20.5154C39.8002 20.3154 39.5002 20.1154 39.2002 19.8154C38.9002 19.5154 38.7002 19.1154 38.5002 18.7154C38.3002 18.2154 38.3002 17.7154 38.3002 17.2154C38.3002 16.7154 38.4002 16.2154 38.5002 15.8154C38.6002 15.4154 38.8002 15.0154 39.1002 14.7154C39.4002 14.4154 39.7002 14.1154 40.1002 14.0154C40.5002 13.8154 41.0002 13.7154 41.5002 13.7154C42.0002 13.7154 42.5002 13.8154 43.0002 13.9154C43.5002 14.0154 44.0002 14.2154 44.5002 14.4154V11.8154C44.1002 11.7154 43.6002 11.6154 43.1002 11.5154C42.5002 11.4154 41.9002 11.4154 41.2002 11.4154C40.4002 11.4154 39.5002 11.5154 38.7002 11.8154C37.3002 12.3154 36.1002 13.5154 35.6002 14.9154C35.3002 15.7154 35.2002 16.5154 35.2002 17.4154C35.2002 18.3154 35.3002 19.1154 35.6002 19.9154C36.1002 21.3154 37.2002 22.4154 38.6002 22.8154C39.4002 23.1154 40.2002 23.2154 41.0002 23.2154C41.6002 23.2154 42.2002 23.2154 42.8002 23.1154C43.4002 23.0154 43.9002 22.8154 44.5002 22.6154V20.1154C44.3002 20.2154 44.0002 20.3154 43.8002 20.4154C43.6002 20.5154 43.4002 20.6154 43.1002 20.6154ZM56.9002 12.8154C56.4002 12.3154 55.8002 11.9154 55.2002 11.7154C54.5002 11.4154 53.7002 11.3154 52.9002 11.3154C52.1002 11.3154 51.3002 11.4154 50.5002 11.7154C49.8002 12.0154 49.2002 12.4154 48.7002 12.9154C48.2002 13.5154 47.8002 14.1154 47.6002 14.8154C47.3002 15.6154 47.2002 16.4154 47.2002 17.3154C47.2002 18.2154 47.3002 19.0154 47.6002 19.9154C47.8002 20.6154 48.2002 21.2154 48.7002 21.8154C49.2002 22.3154 49.8002 22.7154 50.4002 22.9154C51.1002 23.2154 51.9002 23.3154 52.7002 23.3154C53.5002 23.3154 54.3002 23.2154 55.1002 22.9154C55.8002 22.6154 56.4002 22.2154 56.9002 21.7154C57.4002 21.1154 57.8002 20.5154 58.0002 19.8154C58.3002 19.0154 58.4002 18.2154 58.4002 17.3154C58.4002 16.4154 58.3002 15.6154 58.0002 14.8154C57.8002 14.0154 57.4002 13.4154 56.9002 12.8154ZM55.3002 18.7154C55.2002 19.1154 55.1002 19.5154 54.8002 19.8154C54.6002 20.1154 54.3002 20.4154 54.0002 20.6154C53.6002 20.8154 53.2002 20.9154 52.8002 20.9154C52.0002 20.9154 51.3002 20.6154 50.8002 20.0154C50.3002 19.2154 50.0002 18.3154 50.1002 17.3154C50.1002 16.8154 50.1002 16.4154 50.3002 15.9154C50.4002 15.5154 50.5002 15.1154 50.8002 14.8154C51.0002 14.5154 51.3002 14.2154 51.6002 14.0154C52.0002 13.8154 52.4002 13.7154 52.8002 13.7154C53.6002 13.6154 54.3002 14.0154 54.8002 14.6154C55.3002 15.4154 55.5002 16.3154 55.5002 17.3154C55.5002 17.8154 55.4002 18.3154 55.3002 18.7154ZM64.4002 9.71543C64.6002 9.91543 64.8002 10.0154 65.0002 10.1154C65.5002 10.3154 66.0002 10.3154 66.4002 10.1154C66.6002 10.0154 66.8002 9.91543 67.0002 9.71543C67.2002 9.51543 67.3002 9.31543 67.3002 9.11543C67.5002 8.71543 67.5002 8.21543 67.3002 7.71543C67.2002 7.51543 67.1002 7.31543 67.0002 7.21543C66.8002 7.01543 66.6002 6.91543 66.4002 6.81543C65.9002 6.61543 65.4002 6.61543 65.0002 6.81543C64.8002 6.91543 64.6002 7.01543 64.4002 7.21543C64.2002 7.41543 64.1002 7.61543 64.0002 7.81543C63.8002 8.21543 63.8002 8.71543 64.0002 9.11543C64.1002 9.31543 64.2002 9.51543 64.4002 9.71543ZM67.2002 11.6154H61.2002V13.7154H64.4002V20.9154H60.7002V23.0154H70.5002V20.9154H67.2002V11.6154ZM82.1002 12.4154C81.8002 12.0154 81.4002 11.8154 81.0002 11.6154C80.5002 11.4154 80.0002 11.3154 79.5002 11.3154C79.1002 11.3154 78.7002 11.3154 78.4002 11.4154C78.1002 11.5154 77.8002 11.6154 77.5002 11.8154C77.2002 12.0154 76.9002 12.2154 76.7002 12.4154C76.4002 12.7154 76.2002 12.9154 76.0002 13.2154L75.9002 11.5154H73.5002V22.9154H76.3002V15.6154C76.7002 15.0154 77.1002 14.5154 77.6002 14.1154C78.0002 13.8154 78.4002 13.6154 78.9002 13.5154C79.8002 13.5154 80.3002 14.1154 80.3002 15.4154V22.9154H83.0002V15.2154C83.0002 14.6154 82.9002 14.1154 82.8002 13.5154C82.7002 13.2154 82.4002 12.8154 82.1002 12.4154ZM95.3002 12.9154C95.0002 12.4154 94.5002 12.0154 94.0002 11.7154C93.4002 11.4154 92.8002 11.3154 92.2002 11.3154C91.8002 11.3154 91.4002 11.3154 91.1002 11.4154C90.8002 11.5154 90.4002 11.6154 90.2002 11.8154C89.9002 12.0154 89.6002 12.2154 89.4002 12.4154C89.1002 12.7154 88.9002 12.9154 88.7002 13.2154L88.6002 11.5154H86.2002V27.4154H89.0002V22.9154C89.3002 23.0154 89.5002 23.0154 89.8002 23.0154C90.1002 23.0154 90.4002 23.1154 90.7002 23.1154C91.5002 23.1154 92.3002 23.0154 93.1002 22.7154C93.8002 22.5154 94.4002 22.1154 95.0002 21.6154C95.6002 21.1154 96.0002 20.4154 96.2002 19.7154C96.5002 18.8154 96.7002 17.9154 96.6002 17.0154C96.6002 16.2154 96.5002 15.4154 96.3002 14.6154C96.0002 14.1154 95.7002 13.4154 95.3002 12.9154ZM93.3002 18.8154C93.2002 19.2154 93.0002 19.6154 92.7002 20.0154C92.5002 20.3154 92.1002 20.6154 91.8002 20.8154C91.4002 21.0154 91.0002 21.1154 90.6002 21.1154C90.3002 21.1154 89.9002 21.1154 89.6002 21.0154C89.3002 21.0154 89.1002 20.9154 88.8002 20.8154V15.8154C89.2002 15.2154 89.7002 14.7154 90.1002 14.3154C90.5002 14.0154 90.9002 13.8154 91.4002 13.7154C92.0002 13.7154 92.6002 14.0154 92.9002 14.5154C93.1002 14.8154 93.2002 15.2154 93.3002 15.6154C93.4002 16.1154 93.4002 16.7154 93.4002 17.2154C93.5002 17.8154 93.5002 18.3154 93.3002 18.8154ZM107.2 12.3154C106.8 12.0154 106.2 11.7154 105.7 11.6154C105 11.4154 104.2 11.3154 103.5 11.4154C102.7 11.4154 102 11.5154 101.3 11.6154C100.7 11.7154 100 11.9154 99.4002 12.1154V14.3154C100 14.0154 100.7 13.8154 101.3 13.7154C102 13.5154 102.6 13.5154 103.3 13.5154C103.7 13.5154 104 13.5154 104.4 13.6154C104.7 13.7154 104.9 13.8154 105.1 14.0154C105.3 14.2154 105.4 14.4154 105.5 14.6154C105.6 14.9154 105.6 15.1154 105.6 15.4154V16.1154H104.1C103.3 16.1154 102.4 16.2154 101.6 16.4154C101 16.6154 100.4 16.8154 99.8002 17.2154C99.4002 17.5154 99.0002 17.9154 98.8002 18.4154C98.6002 18.9154 98.4002 19.4154 98.5002 19.9154C98.5002 20.4154 98.6002 20.9154 98.7002 21.3154C98.8002 21.7154 99.1002 22.1154 99.4002 22.4154C99.7002 22.7154 100.1 23.0154 100.5 23.1154C101 23.3154 101.5 23.4154 102.1 23.4154C102.5 23.4154 102.9 23.4154 103.3 23.3154C103.6 23.2154 104 23.1154 104.3 22.9154C104.6 22.7154 104.9 22.6154 105.2 22.3154C105.5 22.1154 105.7 21.8154 106 21.6154V23.1154H108.3V15.3154C108.3 14.7154 108.2 14.1154 108 13.6154C107.9 13.0154 107.6 12.6154 107.2 12.3154ZM105.6 19.5154C105.2 19.9154 104.7 20.3154 104.2 20.7154C103.9 21.0154 103.4 21.1154 103 21.1154C102.6 21.1154 102.1 21.0154 101.8 20.7154C101.5 20.4154 101.3 20.0154 101.4 19.6154C101.4 19.4154 101.4 19.1154 101.5 18.9154C101.6 18.7154 101.8 18.5154 101.9 18.4154C102.1 18.2154 102.4 18.1154 102.7 18.0154C103.1 17.9154 103.5 17.9154 103.9 17.9154H105.6V19.5154ZM120.7 12.9154C120.4 12.4154 119.9 12.0154 119.4 11.8154C118.8 11.5154 118.2 11.4154 117.6 11.4154C117.2 11.4154 116.8 11.4154 116.5 11.5154C116.2 11.6154 115.8 11.7154 115.5 11.9154C115.2 12.1154 114.9 12.3154 114.7 12.5154C114.4 12.8154 114.2 13.0154 114 13.3154L113.9 11.6154H111.5V27.5154H114.3V23.0154C114.6 23.1154 114.8 23.1154 115.1 23.1154C115.4 23.1154 115.7 23.2154 116 23.2154C116.8 23.2154 117.6 23.1154 118.3 22.8154C119 22.6154 119.6 22.2154 120.2 21.7154C120.7 21.2154 121.2 20.5154 121.4 19.8154C121.7 18.9154 121.9 18.0154 121.8 17.1154C121.8 16.3154 121.7 15.5154 121.5 14.7154C121.4 14.1154 121.1 13.4154 120.7 12.9154ZM118.7 18.8154C118.6 19.2154 118.4 19.6154 118.1 20.0154C117.9 20.3154 117.5 20.6154 117.2 20.8154C116.8 21.0154 116.4 21.1154 116 21.1154C115.7 21.1154 115.3 21.1154 115 21.0154C114.7 21.0154 114.5 20.9154 114.2 20.8154V15.8154C114.6 15.2154 115 14.7154 115.5 14.3154C115.9 14.0154 116.3 13.8154 116.8 13.7154C117.4 13.7154 118 14.0154 118.3 14.5154C118.5 14.8154 118.6 15.2154 118.7 15.6154C118.8 16.1154 118.9 16.7154 118.8 17.2154C118.9 17.8154 118.9 18.3154 118.7 18.8154ZM133.5 12.5154C133.2 12.1154 132.8 11.8154 132.4 11.6154C131.9 11.4154 131.4 11.3154 130.9 11.3154C130.5 11.3154 130.1 11.3154 129.7 11.4154C129.3 11.5154 129 11.6154 128.7 11.8154C128.4 12.0154 128.1 12.2154 127.9 12.4154C127.7 12.6154 127.4 12.9154 127.3 13.2154L127.2 11.5154H124.7V22.9154H127.5V15.6154C127.9 15.0154 128.4 14.4154 129 13.9154C129.4 13.6154 129.8 13.4154 130.2 13.4154C130.4 13.4154 130.6 13.4154 130.8 13.5154C131 13.6154 131.2 13.7154 131.3 13.9154C131.4 14.1154 131.5 14.4154 131.6 14.6154C131.7 15.0154 131.7 15.3154 131.7 15.7154H134.5C134.5 15.0154 134.5 14.4154 134.3 13.7154C134.1 13.5154 133.8 13.0154 133.5 12.5154ZM140.6 9.71543C140.8 9.91543 141 10.0154 141.2 10.1154C141.7 10.3154 142.2 10.3154 142.6 10.1154C142.8 10.0154 143 9.91543 143.2 9.71543C143.4 9.51543 143.5 9.31543 143.6 9.11543C143.8 8.71543 143.8 8.21543 143.6 7.71543C143.5 7.51543 143.4 7.31543 143.2 7.11543C143 6.91543 142.8 6.81543 142.6 6.71543C142.1 6.51543 141.6 6.51543 141.2 6.71543C141 6.81543 140.8 6.91543 140.6 7.11543C140.4 7.31543 140.3 7.51543 140.2 7.71543C140 8.11543 140 8.61543 140.2 9.11543C140.3 9.41543 140.4 9.61543 140.6 9.71543ZM143.4 11.6154H137.3V13.7154H140.5V20.9154H137V23.0154H146.8V20.9154H143.5L143.4 11.6154ZM159.9 11.6154H156.5L152.5 16.4154V7.11543H149.7V23.0154H152.5V17.3154L156.7 23.0154H160.3L155.3 16.8154L159.9 11.6154ZM171.6 13.5154C171.4 13.0154 171.1 12.6154 170.7 12.3154C170.3 12.0154 169.7 11.7154 169.2 11.6154C168.5 11.4154 167.7 11.3154 167 11.4154C166.3 11.4154 165.5 11.5154 164.8 11.6154C164.2 11.7154 163.5 11.9154 162.9 12.1154V14.3154C163.5 14.0154 164.2 13.8154 164.8 13.7154C165.5 13.5154 166.1 13.5154 166.8 13.5154C167.2 13.5154 167.5 13.5154 167.9 13.6154C168.2 13.7154 168.4 13.8154 168.6 14.0154C168.8 14.2154 168.9 14.4154 169 14.6154C169.1 14.9154 169.1 15.1154 169.1 15.4154V16.1154H167.6C166.8 16.1154 165.9 16.2154 165.1 16.4154C164.5 16.6154 163.9 16.8154 163.3 17.2154C162.9 17.5154 162.5 17.9154 162.3 18.4154C162.1 18.9154 161.9 19.4154 161.9 19.9154C161.9 20.4154 162 20.9154 162.1 21.3154C162.2 21.7154 162.5 22.1154 162.8 22.4154C163.1 22.7154 163.5 23.0154 163.9 23.1154C164.4 23.3154 164.9 23.4154 165.5 23.4154C165.9 23.4154 166.3 23.4154 166.7 23.3154C167 23.2154 167.4 23.1154 167.7 22.9154C168 22.7154 168.3 22.6154 168.6 22.3154C168.9 22.1154 169.1 21.9154 169.4 21.6154L169.5 23.1154H171.9V15.3154C171.9 14.6154 171.8 14.1154 171.6 13.5154ZM169.1 19.5154C168.7 19.9154 168.2 20.3154 167.7 20.7154C167.4 21.0154 166.9 21.1154 166.5 21.1154C166.1 21.1154 165.6 21.0154 165.3 20.7154C165 20.4154 164.8 20.0154 164.9 19.6154C164.9 19.4154 164.9 19.1154 165 18.9154C165.1 18.7154 165.3 18.5154 165.4 18.4154C165.6 18.2154 165.9 18.1154 166.2 18.0154C166.6 17.9154 167 17.9154 167.4 17.9154H169.1V19.5154Z" fill="#BEBEBE"/>
</svg>
