<svg width="241" height="72" viewBox="0 0 241 72" fill="none" xmlns="http://www.w3.org/2000/svg">
<path d="M12.5963 48.4923L7.45298 54.5188L8.9596 58.8308L13.5314 50.8301L12.5963 48.4923Z" fill="#D9D9D9"/>
<path d="M15.8693 52.3887L11.0896 60.9608L14.5704 64.026L17.6356 54.1551L15.8693 52.3887Z" fill="#D9D9D9"/>
<path d="M23.6621 52.7004L19.8696 55.8175L18.2591 67.0912L23.6621 71.0915V52.7004Z" fill="#D9D9D9"/>
<path d="M37.2747 48.4923L42.418 54.5188L40.9114 58.8308L36.3396 50.8301L37.2747 48.4923Z" fill="#D9D9D9"/>
<path d="M34.0017 52.3887L38.7814 60.9608L35.3006 64.026L32.2354 54.1551L34.0017 52.3887Z" fill="#D9D9D9"/>
<path d="M26.2089 52.7004L30.0014 55.8175L31.6119 67.0912L26.2089 71.0915V52.7004Z" fill="#D9D9D9"/>
<path fill-rule="evenodd" clip-rule="evenodd" d="M5.94148 27.6709L2.40557 20.5992V4.58935L3.78065 3.70526L8.20054 5.86607L13.1115 17.3578V23.8403L9.08452 27.0815V36.216L12.3258 43.1896L16.1563 46.1362L18.219 50.6543L20.1834 52.2258L25.1926 48.4935L29.7107 52.2258L32.4608 50.6543L34.4252 46.1362L38.2558 43.1896L41.5953 36.216V27.0815L37.8629 23.8403V17.3578L42.2828 5.86607L46.9974 3.70526L48.0778 4.58935V20.5992L45.3276 27.0815L48.7653 24.8225L50.4351 20.5992V3.0177L48.0778 0.856934L40.2202 3.70526L29.7107 20.5992V23.8403L33.5412 27.0815L28.532 24.8225V19.7152L35.8003 6.35726L33.5412 5.17863L27.2552 20.5992V24.8225L30.3982 27.6709L26.3712 26.0012V19.7152L30.3982 3.70526L25.1926 0.856934L20.1834 3.70526L24.2104 19.7152V26.0012L20.1834 27.6709L23.13 24.8225V20.5992L17.4332 5.17863L14.9777 6.35726L22.0495 20.5992V24.8225L18.219 27.0815L20.8709 23.8403V20.5992L10.656 3.70526L2.79845 0.856934L0.539398 3.0177V20.5992L2.40557 24.8225L5.94148 27.6709ZM21.6533 43.5656H29.2488L25.4149 46.7484L21.6533 43.5656ZM21.5087 34.7402V38.1401L20.2789 36.3318H15.8663L12.8281 33.7999V30.2553C13.0451 30.1589 13.9566 30.0239 15.8663 30.2553C17.776 30.4868 20.4236 33.3417 21.5087 34.7402ZM29.4658 38.1401V34.7402C30.5509 33.3417 33.1984 30.4868 35.1082 30.2553C37.0179 30.0239 37.9293 30.1589 38.1463 30.2553V33.7999L35.1082 36.3318H30.6955L29.4658 38.1401Z" fill="#D9D9D9"/>
<path d="M72.0036 47.0283C70.7331 47.0283 69.5699 46.7957 68.5141 46.3304C67.4583 45.8473 66.5636 45.1941 65.8299 44.371C65.0962 43.5478 64.5683 42.6262 64.2462 41.6062L66.5278 40.6667C67.011 41.9552 67.7267 42.9483 68.6752 43.6462C69.6415 44.3262 70.7689 44.6662 72.0573 44.6662C72.8447 44.6662 73.5336 44.541 74.1241 44.2904C74.7147 44.0399 75.171 43.691 75.4931 43.2436C75.8331 42.7783 76.0031 42.2415 76.0031 41.6331C76.0031 40.792 75.7615 40.1299 75.2783 39.6467C74.8131 39.1457 74.1241 38.7699 73.2115 38.5194L69.5341 37.392C68.0846 36.9446 66.9752 36.2378 66.2057 35.2715C65.4362 34.3052 65.0515 33.1957 65.0515 31.943C65.0515 30.8515 65.311 29.8941 65.8299 29.0709C66.3667 28.2299 67.1004 27.5767 68.031 27.1115C68.9794 26.6283 70.0531 26.3867 71.252 26.3867C72.451 26.3867 73.5336 26.6015 74.4999 27.0309C75.4841 27.4604 76.3162 28.042 76.9962 28.7757C77.6762 29.4915 78.1773 30.3146 78.4994 31.2451L76.2447 32.1846C75.8152 31.0573 75.171 30.2073 74.312 29.6346C73.4531 29.0441 72.442 28.7488 71.2789 28.7488C70.5631 28.7488 69.9278 28.8741 69.3731 29.1246C68.8362 29.3573 68.4157 29.7062 68.1115 30.1715C67.8252 30.6188 67.682 31.1557 67.682 31.782C67.682 32.5157 67.9146 33.1688 68.3799 33.7415C68.8452 34.3141 69.552 34.7525 70.5004 35.0567L73.8557 36.0499C75.4304 36.5331 76.6205 37.222 77.4257 38.1167C78.231 39.0115 78.6336 40.121 78.6336 41.4452C78.6336 42.5368 78.3473 43.5031 77.7747 44.3441C77.2199 45.1852 76.4415 45.8473 75.4394 46.3304C74.4552 46.7957 73.3099 47.0283 72.0036 47.0283Z" fill="white"/>
<path d="M82.485 46.7062V26.7088H89.5445C90.8687 26.7088 92.0319 26.9594 93.034 27.4604C94.0361 27.9615 94.8145 28.6773 95.3693 29.6078C95.9419 30.5383 96.2282 31.6299 96.2282 32.8825C96.2282 34.1352 95.9419 35.2267 95.3693 36.1573C94.8145 37.0699 94.0361 37.7857 93.034 38.3046C92.0498 38.8057 90.8866 39.0562 89.5445 39.0562H85.1156V46.7062H82.485ZM85.1156 36.6404H89.6251C90.4303 36.6404 91.1282 36.4883 91.7187 36.1841C92.3093 35.8799 92.7656 35.4415 93.0877 34.8688C93.4098 34.2962 93.5709 33.6341 93.5709 32.8825C93.5709 32.113 93.4098 31.4509 93.0877 30.8962C92.7656 30.3236 92.3093 29.8851 91.7187 29.5809C91.1282 29.2767 90.4303 29.1246 89.6251 29.1246H85.1156V36.6404Z" fill="white"/>
<path d="M99.7857 46.7062V26.7088H102.416V35.6204H112.428V26.7088H115.086V46.7062H112.428V38.0362H102.416V46.7062H99.7857Z" fill="white"/>
<path d="M124.517 46.7062V37.5531L117.591 26.7088H120.571L126.369 35.8083H125.295L131.066 26.7088H134.046L127.174 37.5531V46.7062H124.517Z" fill="white"/>
<path d="M136.563 46.7062V26.7088H138.764L150.252 42.8678L149.259 42.9752V26.7088H151.916V46.7062H149.715L138.28 30.4399L139.193 30.3325V46.7062H136.563Z" fill="white"/>
<path d="M154.447 46.7062L160.97 36.5599L154.608 26.7088H157.614L163.01 35.1104H161.882L167.278 26.7088H170.284L163.922 36.5599L170.445 46.7062H167.439L161.882 38.0094H163.01L157.426 46.7062H154.447Z" fill="white"/>
<path d="M177.698 46.7062V26.7088H179.442V45.0957H188.435V46.7062H177.698Z" fill="white"/>
<path d="M189.917 46.7062L197.272 26.7088H199.07L206.425 46.7062H204.546L202.721 41.6062H193.621L191.769 46.7062H189.917ZM194.185 39.9957H202.13L197.835 28.0509H198.48L194.185 39.9957Z" fill="white"/>
<path d="M209.389 46.7062V26.7088H217.63C218.721 26.7088 219.67 26.9236 220.475 27.353C221.298 27.7825 221.934 28.373 222.381 29.1246C222.846 29.8762 223.079 30.7441 223.079 31.7283C223.079 32.7662 222.81 33.6878 222.274 34.4931C221.737 35.2983 220.985 35.8799 220.019 36.2378V35.7815C220.806 36.032 221.486 36.4167 222.059 36.9357C222.649 37.4367 223.097 38.0362 223.401 38.7341C223.723 39.432 223.884 40.1836 223.884 40.9889C223.884 42.7246 223.329 44.1115 222.22 45.1494C221.128 46.1873 219.598 46.7062 217.63 46.7062H209.389ZM211.134 45.0957H217.523C218.936 45.0957 220.055 44.7289 220.878 43.9952C221.719 43.2615 222.139 42.2683 222.139 41.0157C222.139 39.781 221.728 38.7967 220.905 38.0631C220.099 37.3115 219.017 36.9357 217.657 36.9357H211.134V45.0957ZM211.134 35.352H217.469C218.632 35.352 219.563 35.0209 220.26 34.3588C220.976 33.6967 221.334 32.8288 221.334 31.7552C221.334 30.6815 220.985 29.8404 220.287 29.232C219.607 28.6236 218.668 28.3194 217.469 28.3194H211.134V35.352Z" fill="white"/>
<path d="M234.523 47.0283C233.252 47.0283 232.107 46.7868 231.087 46.3036C230.085 45.8204 229.244 45.1852 228.564 44.3978C227.902 43.6104 227.427 42.7604 227.141 41.8478L228.698 41.2841C229.199 42.6441 229.942 43.682 230.926 44.3978C231.928 45.1136 233.118 45.4715 234.496 45.4715C235.408 45.4715 236.205 45.3194 236.885 45.0152C237.583 44.711 238.128 44.2815 238.522 43.7268C238.916 43.172 239.113 42.5189 239.113 41.7673C239.113 40.7294 238.817 39.9241 238.227 39.3515C237.654 38.7789 236.903 38.3673 235.972 38.1167L232.322 37.0431C230.836 36.6136 229.736 35.9246 229.02 34.9762C228.322 34.0099 227.973 32.9183 227.973 31.7015C227.973 30.6457 228.224 29.7241 228.725 28.9367C229.244 28.1315 229.942 27.5051 230.818 27.0578C231.695 26.6104 232.688 26.3867 233.798 26.3867C234.961 26.3867 235.999 26.6104 236.912 27.0578C237.842 27.4872 238.621 28.0599 239.247 28.7757C239.891 29.4736 240.347 30.252 240.616 31.1109L239.086 31.6746C238.638 30.4399 237.949 29.5094 237.019 28.883C236.088 28.2388 235.024 27.9167 233.825 27.9167C233.037 27.9167 232.331 28.0688 231.704 28.373C231.078 28.6773 230.586 29.1067 230.228 29.6615C229.87 30.2162 229.691 30.8694 229.691 31.6209C229.691 32.5336 229.951 33.312 230.469 33.9562C230.988 34.6004 231.856 35.1104 233.073 35.4862L236.348 36.4525C237.779 36.882 238.88 37.5441 239.649 38.4388C240.437 39.3157 240.831 40.3983 240.831 41.6868C240.831 42.7425 240.562 43.6731 240.025 44.4783C239.488 45.2657 238.737 45.892 237.771 46.3573C236.822 46.8047 235.739 47.0283 234.523 47.0283Z" fill="white"/>
</svg>
